<?xml version="1.0" encoding="utf-8"?>
<!-- Generator: Adobe Illustrator 22.0.1, SVG Export Plug-In . SVG Version: 6.00 Build 0)  -->
<svg version="1.1" id="Layer_1" xmlns="http://www.w3.org/2000/svg" xmlns:xlink="http://www.w3.org/1999/xlink" x="0px" y="0px"
	 viewBox="0 0 151 56" style="enable-background:new 0 0 151 56;" xml:space="preserve">
<style type="text/css">
	.st0{fill-rule:evenodd;clip-rule:evenodd;fill:#FFFFFF;}
	.st1{fill-rule:evenodd;clip-rule:evenodd;fill:url(#SVGID_1_);}
	.st2{fill-rule:evenodd;clip-rule:evenodd;fill:#38C1CF;}
	.st3{fill-rule:evenodd;clip-rule:evenodd;fill:#E70D8D;}
	.st4{fill-rule:evenodd;clip-rule:evenodd;fill:#582E91;}
	.st5{fill-rule:evenodd;clip-rule:evenodd;fill:#E3038C;}
	.st6{fill-rule:evenodd;clip-rule:evenodd;fill:#80C342;}
	.st7{fill-rule:evenodd;clip-rule:evenodd;fill:#7FC34B;}
	.st8{fill-rule:evenodd;clip-rule:evenodd;fill:#15B3C6;}
	.st9{fill-rule:evenodd;clip-rule:evenodd;fill:#1493A4;}
	.st10{fill-rule:evenodd;clip-rule:evenodd;fill:#C2D957;}
	.st11{fill-rule:evenodd;clip-rule:evenodd;fill:#B7D43D;}
	.st12{fill-rule:evenodd;clip-rule:evenodd;fill:#A2C937;}
	.st13{fill-rule:evenodd;clip-rule:evenodd;fill:#C9037B;}
	.st14{fill-rule:evenodd;clip-rule:evenodd;fill:#A60062;}
	.st15{fill-rule:evenodd;clip-rule:evenodd;fill:#00BFF3;}
	.st16{fill-rule:evenodd;clip-rule:evenodd;fill:#009ECC;}
	.st17{fill-rule:evenodd;clip-rule:evenodd;fill:#0080AB;}
	.st18{fill:#FFFFFF;}
</style>
<g>
	<polygon class="st0" points="54.5,17.1 54.5,7.9 53,7.9 53,14.5 48.1,7.9 46.6,7.9 46.6,17.1 48.1,17.1 48.1,10.5 53,17.1 	"/>
	<path class="st0" d="M64.5,15l0.9,2.1H67l-4-9.1h-1.6l-4,9.1H59l0.9-2.1H64.5L64.5,15z M63.9,13.6L63.9,13.6h-3.4l1.7-4.1
		L63.9,13.6z"/>
	<path class="st0" d="M72.4,7.9c-2,0-3.3,1-3.3,2.5c0,3.2,4.9,2.1,4.9,4.1c0,0.7-0.6,1.1-1.7,1.1c-1,0-2.1-0.5-3.1-1.3l-0.7,1.3
		c0.9,0.9,2.3,1.4,3.7,1.4c2,0,3.4-1,3.4-2.6c0-3.3-4.9-2.2-4.9-4.2c0-0.6,0.6-1,1.5-1c0.7,0,1.7,0.2,2.7,0.8l0.6-1.4
		C74.7,8.3,73.5,7.9,72.4,7.9z"/>
	<path class="st0" d="M84.5,15l0.9,2.1H87l-4-9.1h-1.6l-4,9.1H79l0.9-2.1H84.5L84.5,15z M83.9,13.6L83.9,13.6h-3.4l1.7-4.1
		L83.9,13.6z"/>
	<path class="st0" d="M53.7,29.3l0.9,2.1h1.6l-4-9.1h-1.6l-4,9.1h1.6l0.9-2.1H53.7L53.7,29.3z M53.1,28L53.1,28h-3.4l1.7-4.1
		L53.1,28z"/>
	<path class="st0" d="M58.6,22.3v9.1h3.7c2.8,0,4.8-1.9,4.8-4.6c0-2.6-2-4.6-4.7-4.6H58.6L58.6,22.3z M60.1,23.6L60.1,23.6h2.2
		c1.8,0,3.2,1.3,3.2,3.2c0,1.8-1.4,3.2-3.1,3.2h-2.2V23.6z"/>
	<polygon class="st0" points="73.8,31.4 77.5,22.3 75.9,22.3 73.1,29.7 70.3,22.3 68.6,22.3 72.2,31.4 	"/>
	<polygon class="st0" points="86.5,23.6 86.5,22.3 79.9,22.3 79.9,31.4 86.6,31.4 86.6,30 81.5,30 81.5,27.5 85.9,27.5 85.9,26.1 
		81.5,26.1 81.5,23.6 	"/>
	<path class="st0" d="M95.5,31.4h1.7l-2-3c1.2-0.5,1.9-1.5,1.9-3c0-2-1.3-3.1-3.7-3.1h-3.7v9.1h1.5v-2.7h2.2c0.1,0,0.3,0,0.4,0
		L95.5,31.4L95.5,31.4z M91.2,27.3L91.2,27.3v-3.6h2.2c1.4,0,2.2,0.6,2.2,1.8c0,1.2-0.8,1.8-2.2,1.8H91.2z"/>
	<polygon class="st0" points="106.5,23.6 106.5,22.3 99.2,22.3 99.2,23.6 102.1,23.6 102.1,31.4 103.6,31.4 103.6,23.6 	"/>
	<rect x="109" y="22.3" class="st0" width="1.5" height="9.1"/>
	<path class="st0" d="M117.2,22.2c-2,0-3.3,1-3.3,2.5c0,3.2,4.9,2.1,4.9,4.1c0,0.7-0.6,1.1-1.7,1.1c-1,0-2.1-0.5-3.1-1.3l-0.7,1.3
		c0.9,0.9,2.3,1.4,3.7,1.4c2,0,3.4-1,3.4-2.6c0-3.3-4.9-2.2-4.9-4.2c0-0.6,0.6-1,1.5-1c0.7,0,1.7,0.2,2.7,0.8l0.6-1.4
		C119.5,22.6,118.3,22.2,117.2,22.2z"/>
	<rect x="123.5" y="22.3" class="st0" width="1.5" height="9.1"/>
	<polygon class="st0" points="136.5,31.4 136.5,22.3 135,22.3 135,28.8 130.1,22.3 128.6,22.3 128.6,31.4 130.1,31.4 130.1,24.8 
		135,31.4 	"/>
	<path class="st0" d="M146.3,26.9v2.5c-0.7,0.4-1.4,0.6-2.1,0.6c-1.9,0-3.3-1.4-3.3-3.2c0-1.8,1.5-3.2,3.3-3.2c1,0,1.9,0.4,2.6,1
		l0.9-1.1c-0.9-0.8-2.2-1.3-3.5-1.3c-2.8,0-4.9,2-4.9,4.6c0,2.6,2.1,4.6,4.8,4.6c1.3,0,2.6-0.5,3.5-1.2v-3.4H146.3z"/>
	<path class="st0" d="M24.5,37.8l-13.7,0c-0.3,0-0.6-0.2-0.7-0.6c-0.2-1.3-0.6-3.2-2-4.6c0,0,0,0,0,0C4.9,29.8,3,25.7,3,21.4
		C3,13.3,9.6,6.7,17.7,6.7c1,0,1.9,0.1,2.8,0.3l-1.4,1.1c-0.5-0.1-1-0.1-1.5-0.1C10.3,8,4.3,14,4.3,21.4c0,4,1.7,7.7,4.8,10.3
		c0,0,0.1,0.1,0.1,0.1c1.4,1.4,1.9,3.3,2.2,4.7l12.5,0c0.2-1.5,0.8-3.4,2.2-4.8c3.1-2.6,4.9-6.3,4.9-10.3c0-2.4-0.6-4.6-1.7-6.5
		l1-0.8c1.3,2.2,2,4.7,2,7.4c0,4.4-1.9,8.5-5.3,11.3c-1.3,1.3-1.8,3.2-1.9,4.6C25.1,37.6,24.8,37.8,24.5,37.8z"/>
	<path class="st0" d="M24.5,40.5H10.8c-0.4,0-0.7-0.3-0.7-0.7c0-0.4,0.3-0.7,0.7-0.7h13.7c0.4,0,0.7,0.3,0.7,0.7
		C25.2,40.2,24.9,40.5,24.5,40.5z"/>
	<path class="st0" d="M24.5,43.4H10.8c-0.4,0-0.7-0.3-0.7-0.7c0-0.4,0.3-0.7,0.7-0.7h13.7c0.4,0,0.7,0.3,0.7,0.7
		C25.2,43.1,24.9,43.4,24.5,43.4z"/>
	<path class="st0" d="M20.5,46.3h-5.7c-0.4,0-0.7-0.3-0.7-0.7c0-0.4,0.3-0.7,0.7-0.7h5.7c0.4,0,0.7,0.3,0.7,0.7
		C21.2,46,20.9,46.3,20.5,46.3z"/>
	<linearGradient id="SVGID_1_" gradientUnits="userSpaceOnUse" x1="-14.5515" y1="13.0019" x2="40.8517" y2="13.0019">
		<stop  offset="0" style="stop-color:#2CC1D7"/>
		<stop  offset="0.2595" style="stop-color:#69C6B9"/>
		<stop  offset="0.8464" style="stop-color:#BCD860"/>
		<stop  offset="1" style="stop-color:#CFDD3D"/>
	</linearGradient>
	<path class="st1" d="M26.1,15.8c-0.2,0-0.5-0.1-0.6-0.3c-1.6-2.1-4-3.5-6.6-3.8c-0.4-0.1-0.7-0.5-0.7-0.9c0.1-0.4,0.5-0.7,0.9-0.7
		c3,0.4,5.8,2,7.6,4.4c0.3,0.3,0.2,0.8-0.1,1.1C26.4,15.8,26.2,15.8,26.1,15.8z"/>
	<path class="st2" d="M13.7,23.5c-0.2,0-0.4,0-0.6-0.1c-0.4-0.2-0.7-0.5-0.7-0.9l-1.2-7.9c-0.1-0.4,0.1-0.8,0.4-1.1
		c0.3-0.3,0.8-0.3,1.2-0.2l7.4,2.9c0.4,0.2,0.7,0.5,0.7,0.9c0.1,0.4-0.1,0.8-0.4,1.1l-6.2,5C14.1,23.3,13.9,23.4,13.7,23.5z"/>
	<path class="st2" d="M18.4,34.8c0,0-0.1,0-0.1,0c-0.1,0-0.1-0.1-0.1-0.2v-1.7c0-0.1,0-0.2,0.1-0.2c0.1,0,0.2,0,0.2,0l1.4,0.8
		c0.1,0,0.1,0.1,0.1,0.2c0,0.1,0,0.2-0.1,0.2l-1.4,0.8C18.5,34.8,18.4,34.8,18.4,34.8z"/>
	<path class="st3" d="M15.5,27.9c-0.1,0-0.2-0.1-0.2-0.1c-0.1-0.1-0.2-0.3-0.1-0.5l0.8-3.1c0-0.2,0.2-0.3,0.3-0.3
		c0.2,0,0.3,0,0.5,0.1l2.3,2.2c0.1,0.1,0.2,0.3,0.1,0.5c0,0.2-0.2,0.3-0.3,0.3l-3.1,0.9C15.7,27.9,15.6,27.9,15.5,27.9z"/>
	<path class="st4" d="M18.2,21.3C18.2,21.3,18.2,21.3,18.2,21.3C18.2,21.3,18.2,21.3,18.2,21.3L18,21.5v-0.4
		c0.1-0.1,0.1-0.1,0.2-0.1c0.1,0,0.2,0.1,0.2,0.1l0.6,1.5c0,0.1,0,0.2,0,0.2C19,23,18.9,23.1,18.8,23L18,22.9v-0.2l0.8,0.1
		c0,0,0,0,0,0c0,0,0,0,0,0L18.2,21.3C18.2,21.3,18.2,21.3,18.2,21.3L18.2,21.3z M18,21.5v-0.4c0,0,0,0,0,0l-1,1.3
		c-0.1,0.1-0.1,0.2,0,0.2c0,0,0,0.1,0.1,0.1c0,0,0.1,0,0.1,0l0.9,0.1v-0.2l-0.8-0.1c0,0,0,0,0,0c0,0,0,0,0,0L18,21.5L18,21.5z"/>
	<path class="st5" d="M21.5,26.8l0.8,0c0,0,0,0,0,0c0,0,0,0,0,0l-0.8-1.3v-0.2c0.1,0,0.1,0,0.2,0.1l0.8,1.3c0,0.1,0,0.2,0,0.2
		c0,0.1-0.1,0.1-0.2,0.1l-0.8,0V26.8L21.5,26.8z M21.5,25.5C21.5,25.5,21.5,25.5,21.5,25.5L21.5,25.5l0-0.2c0,0,0,0,0,0
		c-0.1,0-0.2,0-0.2,0.1l-0.8,1.3c0,0.1,0,0.2,0,0.2c0,0,0,0.1,0.1,0.1c0,0,0.1,0,0.1,0l0.8,0v-0.2l-0.8,0c0,0,0,0,0,0c0,0,0,0,0,0
		L21.5,25.5C21.5,25.5,21.5,25.5,21.5,25.5C21.5,25.5,21.5,25.5,21.5,25.5L21.5,25.5z"/>
	<path class="st6" d="M17.5,29.9l0.5-0.3c0,0,0,0,0,0c0,0,0,0,0,0l-0.5-0.3v-0.2l0.6,0.3c0.1,0,0.1,0.1,0.1,0.1c0,0.1,0,0.1-0.1,0.1
		l-0.6,0.3V29.9L17.5,29.9z M17.1,29.1C17.1,29.1,17.1,29.1,17.1,29.1l0.5,0.3v-0.2l-0.4-0.2c-0.1,0-0.1,0-0.2,0
		c-0.1,0-0.1,0.1-0.1,0.1v1.1c0,0.1,0,0.1,0.1,0.1c0,0,0.1,0,0.1,0c0,0,0.1,0,0.1,0l0.4-0.2v-0.2l-0.5,0.3c0,0,0,0,0,0c0,0,0,0,0,0
		L17.1,29.1C17,29.1,17,29.1,17.1,29.1C17.1,29.1,17.1,29.1,17.1,29.1L17.1,29.1z"/>
	<path class="st7" d="M22.5,18C22.5,18,22.5,18,22.5,18C22.5,18,22.5,18,22.5,18l-0.1,0.1L22.5,18c-0.1-0.1,0-0.1,0-0.1
		c0,0,0.1,0,0.1,0.1l0.3,0.8c0,0,0,0.1,0,0.1c0,0-0.1,0.1-0.1,0l-0.4,0v-0.1l0.4,0.1c0,0,0,0,0,0c0,0,0,0,0,0L22.5,18
		C22.5,18,22.5,18,22.5,18L22.5,18z M22.4,18.1V18c0,0,0,0,0,0l-0.5,0.7c0,0,0,0.1,0,0.1c0,0,0,0,0,0.1s0,0,0.1,0l0.4,0.1v-0.1
		L22,18.7c0,0,0,0,0,0c0,0,0,0,0,0L22.4,18.1L22.4,18.1z"/>
	<path class="st8" d="M13.7,23.5c-0.2,0-0.3,0-0.5,0l2.5-8.9l4.4,1.7c0.4,0.2,0.7,0.5,0.7,0.9c0.1,0.4-0.1,0.8-0.4,1.1l-6.2,5
		C14.1,23.3,13.9,23.4,13.7,23.5z"/>
	<path class="st9" d="M13.7,23.5c-0.2,0-0.3,0-0.5,0l5.3-7.9l1.6,0.6c0.4,0.2,0.7,0.5,0.7,0.9c0.1,0.4-0.1,0.8-0.4,1.1l-6.2,5
		C14.1,23.3,13.9,23.4,13.7,23.5z"/>
	<g>
		<path class="st10" d="M23.6,24.5c0.1,0,0.2-0.1,0.2-0.1c0.1-0.1,0.2-0.3,0.2-0.5l-0.9-3.6c0-0.2-0.2-0.3-0.4-0.4
			c-0.2-0.1-0.4,0-0.5,0.1l-2.7,2.6c-0.1,0.1-0.2,0.3-0.2,0.5c0,0.2,0.2,0.3,0.4,0.4l3.6,1C23.4,24.5,23.5,24.6,23.6,24.5z"/>
		<g>
			<path class="st11" d="M23.6,24.5c0.1,0,0.1,0,0.2-0.1L21.1,21l-1.6,1.5c-0.1,0.1-0.2,0.3-0.2,0.5c0,0.2,0.2,0.3,0.4,0.4l3.6,1
				C23.4,24.5,23.5,24.5,23.6,24.5z"/>
			<path class="st12" d="M23.6,24.5c0.1,0,0.1,0,0.2-0.1L20.1,22l-0.6,0.6c-0.1,0.1-0.2,0.3-0.2,0.5c0,0.2,0.2,0.3,0.4,0.4l3.6,1
				C23.4,24.5,23.5,24.5,23.6,24.5z"/>
		</g>
	</g>
	<path class="st13" d="M15.6,27.9c-0.1,0-0.1,0-0.2-0.1l2.3-2.9l1.4,1.3c0.1,0.1,0.2,0.3,0.1,0.5c0,0.2-0.2,0.3-0.3,0.3l-3.1,0.9
		C15.8,27.9,15.7,27.9,15.6,27.9z"/>
	<path class="st14" d="M15.6,27.9c-0.1,0-0.1,0-0.2-0.1l3.2-2.1l0.5,0.5c0.1,0.1,0.2,0.3,0.1,0.5c0,0.2-0.2,0.3-0.3,0.3l-3.1,0.9
		C15.8,27.9,15.7,27.9,15.6,27.9z"/>
	<path class="st15" d="M21.7,31.2c0.1,0,0.1,0,0.2-0.1c0.1-0.1,0.2-0.2,0.2-0.3v-2.6c0-0.1-0.1-0.3-0.2-0.3c-0.1-0.1-0.3-0.1-0.4,0
		l-2.2,1.3c-0.1,0.1-0.2,0.2-0.2,0.3c0,0.1,0.1,0.3,0.2,0.3l2.2,1.3C21.6,31.2,21.6,31.2,21.7,31.2z"/>
	<path class="st16" d="M21.7,31.2c0,0,0.1,0,0.1,0l-1.2-2.7l-1.3,0.8c-0.1,0.1-0.2,0.2-0.2,0.3c0,0.1,0.1,0.3,0.2,0.3l2.2,1.3
		C21.6,31.2,21.6,31.2,21.7,31.2z"/>
	<path class="st17" d="M21.7,31.2c0,0,0.1,0,0.1,0L19.8,29l-0.5,0.3c-0.1,0.1-0.2,0.2-0.2,0.3c0,0.1,0.1,0.3,0.2,0.3l2.2,1.3
		C21.6,31.2,21.6,31.2,21.7,31.2z"/>
	<g>
		<path class="st8" d="M18.2,32.8C18.2,32.8,18.2,32.7,18.2,32.8l1.2,1.5l-0.8,0.5c-0.1,0-0.2,0-0.2,0c-0.1,0-0.1-0.1-0.1-0.2l0-1.7
			C18.2,32.9,18.2,32.8,18.2,32.8z"/>
		<path class="st9" d="M18.2,32.8C18.2,32.8,18.2,32.7,18.2,32.8l0.6,1.8l-0.3,0.2c-0.1,0-0.2,0-0.2,0c-0.1,0-0.1-0.1-0.1-0.2l0-1.7
			C18.2,32.9,18.2,32.8,18.2,32.8z"/>
	</g>
	<rect x="38.7" y="6" class="st0" width="2" height="40.3"/>
	<g>
		<path class="st18" d="M76.3,35.6c0,2,0,4,0,6c0,1.1-0.6,2-1.7,2.2c-0.1,0-0.3,0.1-0.4,0.1c-1.3,0-2.6,0-3.9,0
			c0.2-0.4,0.4-0.7,0.5-1c0,0,0.1,0,0.2-0.1c0.4,0,0.7,0,1.1,0c0-0.1,0-0.2,0-0.3c0-1.9,0-3.8,0-5.7c0-0.2,0-0.3,0.2-0.3
			c0.3-0.1,0.7-0.2,1-0.3c0,1.1,0,2.2,0,3.3c0,1.1,0,2.2,0,3.3c0.3,0,0.7,0,1-0.1c0.5-0.1,0.7-0.5,0.7-1.1c0-1.8,0-3.6,0-5.3
			c0-0.1,0-0.2,0-0.3C75.4,35.8,75.8,35.7,76.3,35.6C76.2,35.6,76.3,35.6,76.3,35.6z"/>
		<path class="st18" d="M81.4,46.3c-0.3-0.1-0.5-0.1-0.8-0.2c-0.2,0-0.3-0.2-0.3-0.3c-0.1-0.3-0.3-0.6-0.4-1
			c0.4,0.1,0.7,0.2,1.1,0.3c0.5,0.1,1,0.1,1.4,0c0.6-0.2,1-0.7,1-1.3c-0.3,0.1-0.7,0.2-1,0.2c-1.4,0.1-2.4-0.7-2.6-2.2
			c-0.1-0.6-0.1-1.2,0.1-1.7c0.3-1.2,1.1-1.8,2.4-1.8c0.7,0,1.4,0.2,1.8,0.8c0.3,0.4,0.4,0.8,0.5,1.3c0.2,1.3,0.2,2.6-0.1,3.9
			c-0.2,1.1-1,1.8-2.1,2c0,0-0.1,0-0.1,0C81.9,46.3,81.6,46.3,81.4,46.3z M83.4,41.2c-0.1-0.4-0.1-0.8-0.3-1.1
			c-0.2-0.5-0.6-0.6-1-0.7c-0.5,0-0.9,0.2-1.1,0.7c-0.3,0.7-0.3,1.5,0,2.2c0.2,0.5,0.6,0.7,1.1,0.7c0.5,0,0.9-0.2,1-0.7
			C83.3,41.9,83.3,41.6,83.4,41.2z"/>
		<path class="st18" d="M147.3,41.7c0,0.1,0,0.3-0.1,0.4c-0.2,1-1,1.7-2.1,1.7c-0.8,0-1.6,0-2.5,0c-0.9,0-1.5-0.7-1.5-1.5
			c0-2,0-4.1,0-6.1c0-0.1,0-0.2,0.1-0.2c0.4-0.1,0.7-0.2,1.1-0.4c0,0.1,0,0.2,0,0.3c0,2,0,4,0,6c0,0.6,0.2,0.8,0.8,0.8
			c0.5,0,1,0,1.6,0c0.9,0,1.3-0.4,1.3-1.3c0-0.9,0-1.8,0-2.8c0-0.2,0.1-0.3,0.2-0.3c0.3-0.1,0.7-0.2,1-0.3
			C147.3,39.3,147.3,40.5,147.3,41.7z"/>
		<path class="st18" d="M49.8,46.3c-0.3-0.1-0.6-0.1-0.8-0.2c-1.2-0.3-1.9-1.1-2.1-2.3c-0.1-0.6-0.1-1.3-0.2-1.9
			c0-0.1,0-0.2,0.2-0.2c0.3-0.1,0.7-0.2,1-0.3c0,0.4,0,0.7,0,1c0,0.4,0,0.8,0.1,1.2c0.2,1,0.7,1.5,1.7,1.6c0.5,0.1,1,0,1.5,0
			c0.9-0.2,1.3-0.7,1.3-1.6c0-1.2,0-2.4,0-3.5c0-0.2,0-0.3,0.2-0.3c0.3-0.1,0.6-0.2,1-0.3c0,0.1,0,0.2,0,0.3c0,1.3,0,2.6,0,3.9
			c0,1.5-0.8,2.4-2.3,2.6c-0.2,0-0.4,0.1-0.6,0.1C50.5,46.3,50.1,46.3,49.8,46.3z"/>
		<path class="st18" d="M96.7,46.3c-0.2-0.1-0.5-0.2-0.5-0.5c-0.1-0.3,0.1-0.7,0.4-0.8c0.3-0.1,0.7,0,0.8,0.3
			c0.1,0.3,0.1,0.7-0.2,0.9c-0.1,0-0.1,0.1-0.2,0.1C96.9,46.3,96.8,46.3,96.7,46.3z"/>
		<path class="st18" d="M95,46.3c-0.2-0.1-0.4-0.2-0.5-0.5c-0.1-0.3,0.1-0.7,0.4-0.8c0.3-0.1,0.7,0,0.8,0.3c0.1,0.3,0,0.7-0.2,0.8
			c-0.1,0-0.1,0.1-0.2,0.1C95.2,46.3,95.1,46.3,95,46.3z"/>
		<path class="st18" d="M110.2,40.2c0-0.4,0-0.8,0-1.2c0,0,0-0.1,0.1-0.1c1.2-1.1,2.9-0.8,3.7,0.1c0.3,0.4,0.5,0.8,0.5,1.3
			c0,0.8,0,1.6,0,2.3c0,0,0,0.1,0,0.1c0.5,0,0.9,0,1.4,0c0.3,0,0.7,0,1,0c0.7,0,1.2-0.4,1.2-1.2c0-0.9,0-1.8,0-2.7
			c0-0.8,0-1.7,0-2.5c0-0.2,0-0.3,0.2-0.3c0.3-0.1,0.6-0.2,1-0.3c0,0.1,0,0.2,0,0.3c0,1.8,0,3.6,0,5.5c0,0.1,0,0.1,0,0.2
			c0,0.8,0.4,1.2,1.2,1.2c0.5,0,1.1,0,1.6,0c0.5-0.1,0.8-0.4,0.8-0.9c0-0.2,0-0.4,0-0.5c0-1.7,0-3.4,0-5.1c0-0.2,0-0.3,0.2-0.3
			c0.3-0.1,0.6-0.2,1-0.3c0,0.1,0,0.2,0,0.3c0,1.9,0,3.7,0,5.6c0,1.3-0.9,2.2-2.2,2.3c-0.5,0-1.1,0-1.6,0c-0.6,0-1.2-0.2-1.6-0.7
			c-0.4,0.4-0.8,0.6-1.3,0.6c-0.1,0-0.2,0-0.3,0c-2.5,0-5,0-7.4,0c0,0-0.1,0-0.2,0c0.2-0.4,0.5-0.7,0.7-1c0,0,0.1,0,0.2,0
			c0.9,0,1.8,0,2.6,0c0.1,0,0.2,0,0.2,0c0,0,0,0,0-0.1c0-0.8,0-1.7,0-2.5c0-0.7-0.6-1.1-1.4-1C111.2,39.2,110.8,39.5,110.2,40.2z"/>
		<path class="st18" d="M56.6,42.8c0-0.1,0-0.2,0-0.3c0-1.9,0-3.8,0-5.7c0-0.2,0.1-0.3,0.3-0.3c0.3-0.1,0.6-0.2,1-0.3
			c0,2.2,0,4.4,0,6.6c0.4,0,0.7-0.1,1.1-0.1c0.4-0.1,0.7-0.5,0.7-1.1c0-1.8,0-3.5,0-5.3c0-0.1,0-0.2,0-0.3c0.4-0.1,0.8-0.2,1.2-0.3
			c0,0.1,0,0.2,0,0.3c0,1.9,0,3.8,0,5.6c0,0.8,0.4,1.2,1.2,1.2c0.6,0,1.3,0,1.9,0c0-0.1,0-0.2,0-0.3c0-0.7,0-1.5,0-2.2
			c0.1-1.3,1-2.1,2.4-2.2c0.8,0,1.4,0.2,2,0.8c-0.3,0.3-0.6,0.5-0.9,0.8c-0.1-0.1-0.2-0.2-0.2-0.2c-0.4-0.3-0.8-0.4-1.3-0.2
			c-0.4,0.2-0.7,0.5-0.7,1c0,0.8,0,1.7,0,2.5c0.1,0,0.2,0,0.2,0c0.9,0,1.8,0,2.8,0c0.2,0,0.3,0.1,0.4,0.2c0.2,0.3,0.5,0.6,0.8,0.9
			c-0.1,0-0.2,0-0.3,0c-2.4,0-4.7,0-7.1,0c-0.7,0-1.2-0.2-1.7-0.6c-0.3,0.2-0.6,0.3-0.9,0.5c-0.2,0.1-0.4,0.1-0.6,0.1
			c-1.3,0-2.6,0-3.9,0c0.2-0.4,0.4-0.7,0.5-1c0,0,0.1,0,0.2,0C55.8,42.8,56.2,42.8,56.6,42.8z"/>
		<path class="st18" d="M136.4,42.8c0.5,0,1,0,1.5,0c0.7-0.1,1-0.5,1-1.2c0-1,0-1.9,0-2.9c0-0.2,0.1-0.3,0.2-0.3
			c0.3-0.1,0.7-0.2,1-0.3c0,0.4,0,0.8,0,1.1c0,0.8,0,1.6,0,2.3c0,1.4-0.9,2.3-2.3,2.3c-3,0-6,0-9,0c-0.9,0-1.6-0.6-1.6-1.5
			c0-2,0-4.1,0-6.1c0-0.1,0.1-0.2,0.1-0.2c0.4-0.1,0.7-0.2,1.1-0.4c0,0.1,0,0.2,0,0.3c0,2,0,4.1,0,6.1c0,0.5,0.2,0.7,0.7,0.7
			c0.7,0,1.4,0,2.1,0c0.1,0,0.1,0,0.2,0c0-1.1,0-2.1,0-3.2c0.4-0.1,0.8-0.2,1.2-0.3c0,1.2,0,2.4,0,3.6c0.8,0,1.6,0,2.5,0
			c0-0.1,0-0.2,0-0.3c0-1.1,0-2.2,0-3.2c0-0.2,0-0.3,0.2-0.3c0.3-0.1,0.6-0.2,1-0.3C136.4,40.1,136.4,41.4,136.4,42.8z"/>
		<path class="st18" d="M97.8,38.1c0,1.3,0,2.5,0,3.7c0,1.1-0.9,1.9-2,2c-0.8,0.1-1.7,0-2.5,0c-0.6,0-0.9-0.3-1.2-0.7c0,0,0,0,0,0
			c-0.3,0.5-0.8,0.7-1.3,0.8c-0.5,0.1-1,0.1-1.6-0.1c-0.7-0.2-1.1-0.8-1.3-1.4c-0.2-0.8-0.2-1.7,0-2.5c0.3-1.1,1-1.6,2.1-1.7
			c0.9,0,1.8,0,2.7,0c0,0,0,0,0.1,0c0,0.1,0,0.2,0,0.2c0,1,0,2,0,3c0,0.2,0,0.3,0,0.5c0.1,0.5,0.4,0.8,1.1,0.8c0.5,0,1.1,0,1.6,0
			c0.7-0.1,1.1-0.4,1.1-1.2c0-1,0-1.9,0-2.9c0-0.2,0-0.3,0.2-0.3C97.1,38.4,97.4,38.2,97.8,38.1z M91.4,39.2c0,0-0.1,0-0.1,0
			c-0.4,0-0.8,0-1.2,0c-0.7,0.1-1,0.3-1.1,1c-0.1,0.6-0.1,1.2,0,1.8c0.1,0.3,0.3,0.7,0.6,0.8c0.8,0.2,1.7,0.1,1.8-1
			C91.5,40.9,91.5,40,91.4,39.2C91.5,39.2,91.5,39.2,91.4,39.2z"/>
		<path class="st18" d="M100.1,35.7c0,0.1,0,0.2,0,0.3c0,2,0,4.1,0,6.1c0,0.6,0.2,0.7,0.7,0.7c0.7,0,1.3,0,2,0c0.1,0,0.1,0,0.2,0
			c0-0.4,0-0.8,0-1.1c0-0.5,0-1.1,0.1-1.6c0.3-1.4,1.4-2.1,2.8-1.9c0.6,0.1,1.1,0.3,1.5,0.7c-0.3,0.3-0.6,0.5-0.9,0.8
			c-0.1-0.1-0.2-0.2-0.3-0.2c-0.4-0.3-0.8-0.4-1.3-0.2c-0.4,0.2-0.7,0.5-0.7,1c0,0.8,0,1.7,0,2.5c0.1,0,0.2,0,0.2,0
			c0.9,0,1.9,0,2.8,0c0.1,0,0.2,0,0.3,0.2c0.2,0.3,0.5,0.6,0.8,0.9c-0.1,0-0.2,0-0.2,0c-2.5,0-5.1,0-7.6,0c-1,0-1.6-0.6-1.6-1.6
			c0-2,0-4,0-5.9c0-0.2,0-0.3,0.2-0.3C99.4,35.9,99.7,35.8,100.1,35.7z"/>
		<path class="st18" d="M78.6,43.9c-0.4,0-0.8,0-1.2,0c0-2.6,0-5.2,0-7.8c0.4-0.1,0.8-0.3,1.2-0.4C78.6,38.4,78.6,41.1,78.6,43.9z"
			/>
		<path class="st18" d="M145.2,36.4c0-0.4,0.3-0.7,0.7-0.7c0.4,0,0.7,0.3,0.6,0.7c0,0.4-0.3,0.7-0.7,0.7
			C145.5,37,145.2,36.7,145.2,36.4z"/>
		<path class="st18" d="M90.4,36.4c0,0.4-0.3,0.7-0.7,0.7c-0.4,0-0.7-0.3-0.7-0.7c0-0.4,0.3-0.7,0.7-0.7
			C90.1,35.7,90.4,36,90.4,36.4z"/>
		<path class="st18" d="M92.1,36.4c0,0.4-0.3,0.7-0.7,0.7c-0.3,0-0.6-0.3-0.7-0.7c0-0.4,0.3-0.7,0.7-0.7
			C91.8,35.7,92.1,36,92.1,36.4z"/>
		<path class="st18" d="M50.7,39.9c0,0.4-0.3,0.7-0.6,0.7c-0.4,0-0.7-0.3-0.7-0.7c0-0.4,0.3-0.7,0.6-0.7
			C50.4,39.3,50.7,39.5,50.7,39.9z"/>
	</g>
</g>
</svg>
