<?xml version="1.0" encoding="utf-8"?>
<!-- Generator: Adobe Illustrator 22.0.1, SVG Export Plug-In . SVG Version: 6.00 Build 0)  -->
<svg version="1.1" id="Layer_1" xmlns="http://www.w3.org/2000/svg" xmlns:xlink="http://www.w3.org/1999/xlink" x="0px" y="0px"
	 viewBox="0 0 151 50" style="enable-background:new 0 0 151 50;" xml:space="preserve">
<style type="text/css">
	.st0{fill-rule:evenodd;clip-rule:evenodd;fill:#FFFFFF;}
	.st1{fill:#FFFFFF;}
	.st2{fill-rule:evenodd;clip-rule:evenodd;fill:url(#SVGID_1_);}
	.st3{fill-rule:evenodd;clip-rule:evenodd;fill:none;stroke:#15B3C6;stroke-width:2;stroke-miterlimit:2.6131;}
	.st4{fill-rule:evenodd;clip-rule:evenodd;fill:none;stroke:#B7D43D;stroke-width:2;stroke-miterlimit:2.6131;}
	.st5{fill-rule:evenodd;clip-rule:evenodd;fill:none;stroke:#C9037B;stroke-width:2;stroke-miterlimit:2.6131;}
	.st6{fill-rule:evenodd;clip-rule:evenodd;fill:#38C1CF;}
	.st7{fill-rule:evenodd;clip-rule:evenodd;fill:#E70D8D;}
	.st8{fill-rule:evenodd;clip-rule:evenodd;fill:#582E91;}
	.st9{fill-rule:evenodd;clip-rule:evenodd;fill:#E3038C;}
	.st10{fill-rule:evenodd;clip-rule:evenodd;fill:#80C342;}
	.st11{fill-rule:evenodd;clip-rule:evenodd;fill:#7FC34B;}
	.st12{fill-rule:evenodd;clip-rule:evenodd;fill:#15B3C6;}
	.st13{fill-rule:evenodd;clip-rule:evenodd;fill:#1493A4;}
	.st14{fill-rule:evenodd;clip-rule:evenodd;fill:#C2D957;}
	.st15{fill-rule:evenodd;clip-rule:evenodd;fill:#B7D43D;}
	.st16{fill-rule:evenodd;clip-rule:evenodd;fill:#A2C937;}
	.st17{fill-rule:evenodd;clip-rule:evenodd;fill:#C9037B;}
	.st18{fill-rule:evenodd;clip-rule:evenodd;fill:#A60062;}
	.st19{fill-rule:evenodd;clip-rule:evenodd;fill:#00BFF3;}
	.st20{fill-rule:evenodd;clip-rule:evenodd;fill:#009ECC;}
	.st21{fill-rule:evenodd;clip-rule:evenodd;fill:#0080AB;}
</style>
<g id="en">
	<polygon class="st0" points="54.8,16 54.8,6.9 53.3,6.9 53.3,13.4 48.5,6.9 47,6.9 47,16 48.5,16 48.5,9.5 53.3,16 	"/>
	<path class="st0" d="M64.8,13.9l0.9,2h1.6l-4-9.1h-1.6l-4,9.1h1.6l0.9-2H64.8L64.8,13.9z M64.2,12.6L64.2,12.6h-3.4l1.7-4
		L64.2,12.6z"/>
	<path class="st0" d="M72.6,6.9c-2,0-3.3,1-3.3,2.5c0,3.2,4.9,2.1,4.9,4.1c0,0.7-0.6,1.1-1.7,1.1c-1,0-2.1-0.5-3.1-1.3l-0.7,1.3
		c0.9,0.9,2.3,1.4,3.7,1.4c2,0,3.4-1,3.4-2.6c0-3.3-4.9-2.2-4.9-4.2c0-0.6,0.6-0.9,1.5-0.9c0.7,0,1.7,0.2,2.7,0.8l0.6-1.3
		C74.9,7.2,73.7,6.9,72.6,6.9z"/>
	<path class="st0" d="M84.6,13.9l0.9,2h1.6l-4-9.1h-1.6l-4,9.1h1.6l0.9-2H84.6L84.6,13.9z M84,12.6L84,12.6h-3.4l1.7-4L84,12.6z"/>
	<path class="st0" d="M54,28.2l0.9,2h1.6l-4-9.1H51l-4,9.1h1.6l0.9-2H54L54,28.2z M53.4,26.8L53.4,26.8H50l1.7-4L53.4,26.8z"/>
	<path class="st0" d="M58.9,21.2v9.1h3.7c2.7,0,4.7-1.9,4.7-4.5c0-2.6-2-4.5-4.7-4.5H58.9L58.9,21.2z M60.4,22.5L60.4,22.5h2.2
		c1.8,0,3.2,1.3,3.2,3.2c0,1.8-1.3,3.1-3.1,3.1h-2.2V22.5z"/>
	<polygon class="st0" points="74,30.2 77.7,21.2 76.1,21.2 73.3,28.5 70.5,21.2 68.8,21.2 72.4,30.2 	"/>
	<polygon class="st0" points="86.6,22.5 86.6,21.2 80.1,21.2 80.1,30.2 86.7,30.2 86.7,28.9 81.6,28.9 81.6,26.4 86.1,26.4 86.1,25 
		81.6,25 81.6,22.5 	"/>
	<path class="st0" d="M95.5,30.2h1.7l-2-3c1.2-0.5,1.9-1.5,1.9-2.9c0-2-1.3-3.1-3.7-3.1h-3.7v9.1h1.5v-2.7h2.1c0.1,0,0.3,0,0.4,0
		L95.5,30.2L95.5,30.2z M91.3,26.1L91.3,26.1v-3.6h2.1c1.4,0,2.2,0.6,2.2,1.8c0,1.2-0.8,1.8-2.2,1.8H91.3z"/>
	<polygon class="st0" points="106.5,22.5 106.5,21.2 99.3,21.2 99.3,22.5 102.1,22.5 102.1,30.2 103.7,30.2 103.7,22.5 	"/>
	<rect x="109" y="21.2" class="st0" width="1.5" height="9.1"/>
	<path class="st0" d="M117.1,21.1c-2,0-3.3,1-3.3,2.5c0,3.2,4.9,2.1,4.9,4.1c0,0.7-0.6,1.1-1.7,1.1c-1,0-2.1-0.5-3.1-1.3l-0.7,1.3
		c0.9,0.9,2.3,1.4,3.7,1.4c2,0,3.4-1,3.4-2.6c0-3.3-4.9-2.2-4.9-4.2c0-0.6,0.6-0.9,1.5-0.9c0.7,0,1.7,0.2,2.7,0.8l0.6-1.3
		C119.4,21.5,118.3,21.1,117.1,21.1z"/>
	<rect x="123.4" y="21.2" class="st0" width="1.5" height="9.1"/>
	<polygon class="st0" points="136.3,30.2 136.3,21.2 134.8,21.2 134.8,27.7 130,21.2 128.5,21.2 128.5,30.2 130,30.2 130,23.7 
		134.8,30.2 	"/>
	<path class="st0" d="M146.1,25.8v2.5c-0.6,0.4-1.4,0.6-2.1,0.6c-1.9,0-3.3-1.4-3.3-3.2c0-1.8,1.5-3.2,3.3-3.2c0.9,0,1.9,0.4,2.6,1
		l0.9-1.1c-0.9-0.8-2.2-1.3-3.5-1.3c-2.7,0-4.9,2-4.9,4.6c0,2.6,2.1,4.6,4.8,4.6c1.2,0,2.6-0.5,3.5-1.2v-3.3H146.1z"/>
	<rect x="39.1" y="5" class="st0" width="2" height="40"/>
	<g>
		<path class="st1" d="M76.5,34.4c0,2,0,4,0,5.9c0,1.1-0.6,2-1.7,2.2c-0.1,0-0.3,0.1-0.4,0.1c-1.3,0-2.6,0-3.9,0
			c0.2-0.4,0.4-0.7,0.5-1c0,0,0.1,0,0.2-0.1c0.3,0,0.7,0,1.1,0c0-0.1,0-0.2,0-0.3c0-1.9,0-3.8,0-5.7c0-0.2,0-0.3,0.2-0.3
			c0.3-0.1,0.7-0.2,1-0.3c0,1.1,0,2.2,0,3.3c0,1.1,0,2.2,0,3.3c0.3,0,0.7,0,1-0.1c0.5-0.1,0.7-0.5,0.7-1.1c0-1.8,0-3.5,0-5.3
			c0-0.1,0-0.2,0-0.3C75.6,34.7,76,34.5,76.5,34.4C76.4,34.4,76.4,34.4,76.5,34.4z"/>
		<path class="st1" d="M81.5,45.1c-0.3-0.1-0.5-0.1-0.8-0.2c-0.2,0-0.3-0.1-0.3-0.3c-0.1-0.3-0.3-0.6-0.4-0.9
			c0.4,0.1,0.7,0.2,1.1,0.3c0.5,0.1,1,0.1,1.4,0c0.6-0.2,1-0.7,0.9-1.3c-0.3,0.1-0.7,0.2-1,0.2c-1.4,0.1-2.4-0.7-2.6-2.1
			c-0.1-0.6-0.1-1.1,0.1-1.7c0.3-1.2,1.1-1.8,2.4-1.8c0.7,0,1.4,0.2,1.8,0.8c0.3,0.4,0.4,0.8,0.5,1.3c0.2,1.3,0.2,2.6-0.1,3.8
			c-0.2,1.1-1,1.8-2.1,2c0,0-0.1,0-0.1,0C82,45.1,81.8,45.1,81.5,45.1z M83.6,40c-0.1-0.4-0.1-0.7-0.3-1.1c-0.2-0.5-0.6-0.6-1-0.6
			c-0.5,0-0.9,0.2-1.1,0.6c-0.3,0.7-0.3,1.5,0,2.2c0.2,0.5,0.6,0.7,1.1,0.7c0.5,0,0.9-0.2,1-0.7C83.4,40.7,83.5,40.4,83.6,40z"/>
		<path class="st1" d="M147.1,40.5c0,0.1,0,0.3-0.1,0.4c-0.2,1-1,1.7-2.1,1.7c-0.8,0-1.6,0-2.5,0c-0.9,0-1.5-0.7-1.5-1.5
			c0-2,0-4,0-6.1c0-0.1,0-0.2,0.1-0.2c0.4-0.1,0.7-0.2,1.1-0.4c0,0.1,0,0.2,0,0.3c0,2,0,4,0,6c0,0.6,0.2,0.8,0.8,0.8
			c0.5,0,1,0,1.6,0c0.9,0,1.3-0.4,1.3-1.3c0-0.9,0-1.8,0-2.8c0-0.2,0.1-0.3,0.2-0.3c0.3-0.1,0.7-0.2,1-0.3
			C147.1,38.1,147.1,39.3,147.1,40.5z"/>
		<path class="st1" d="M50.1,45.1c-0.3-0.1-0.6-0.1-0.8-0.2c-1.2-0.3-1.9-1.1-2.1-2.3C47,42,47,41.3,47,40.7c0-0.1,0-0.2,0.2-0.2
			c0.3-0.1,0.7-0.2,1-0.3c0,0.4,0,0.7,0,1c0,0.4,0,0.8,0.1,1.2c0.2,1,0.7,1.5,1.7,1.6c0.5,0.1,1,0,1.5,0c0.9-0.2,1.3-0.7,1.3-1.6
			c0-1.2,0-2.4,0-3.5c0-0.2,0-0.3,0.2-0.3c0.3-0.1,0.6-0.2,1-0.3c0,0.1,0,0.2,0,0.3c0,1.3,0,2.6,0,3.9c0,1.5-0.8,2.4-2.3,2.6
			c-0.2,0-0.4,0.1-0.6,0.1C50.8,45.1,50.5,45.1,50.1,45.1z"/>
		<path class="st1" d="M96.7,45.1c-0.2-0.1-0.4-0.2-0.5-0.5c-0.1-0.3,0.1-0.6,0.4-0.8c0.3-0.1,0.7,0,0.8,0.3
			c0.1,0.3,0.1,0.7-0.2,0.8c-0.1,0-0.1,0.1-0.2,0.1C97,45.1,96.9,45.1,96.7,45.1z"/>
		<path class="st1" d="M95.1,45.1c-0.2-0.1-0.4-0.2-0.5-0.5c-0.1-0.3,0.1-0.7,0.4-0.8c0.3-0.1,0.7,0,0.8,0.3c0.1,0.3,0,0.7-0.2,0.8
			c-0.1,0-0.1,0.1-0.2,0.1C95.3,45.1,95.2,45.1,95.1,45.1z"/>
		<path class="st1" d="M110.2,39c0-0.4,0-0.8,0-1.2c0,0,0-0.1,0.1-0.1c1.1-1.1,2.9-0.8,3.7,0.1c0.3,0.4,0.5,0.8,0.5,1.3
			c0,0.8,0,1.6,0,2.3c0,0,0,0.1,0,0.1c0.5,0,0.9,0,1.4,0c0.3,0,0.7,0,1,0c0.7,0,1.2-0.4,1.2-1.2c0-0.9,0-1.8,0-2.7
			c0-0.8,0-1.7,0-2.5c0-0.2,0-0.3,0.2-0.3c0.3-0.1,0.6-0.2,1-0.3c0,0.1,0,0.2,0,0.3c0,1.8,0,3.6,0,5.4c0,0.1,0,0.1,0,0.2
			c0,0.8,0.4,1.2,1.2,1.2c0.5,0,1,0,1.6,0c0.5-0.1,0.8-0.4,0.8-0.8c0-0.2,0-0.4,0-0.5c0-1.7,0-3.3,0-5c0-0.2,0-0.3,0.2-0.3
			c0.3-0.1,0.6-0.2,1-0.3c0,0.1,0,0.2,0,0.3c0,1.9,0,3.7,0,5.6c0,1.3-0.9,2.2-2.2,2.2c-0.5,0-1.1,0-1.6,0c-0.6,0-1.2-0.2-1.6-0.7
			c-0.4,0.4-0.8,0.6-1.3,0.6c-0.1,0-0.2,0-0.3,0c-2.5,0-4.9,0-7.4,0c0,0-0.1,0-0.2,0c0.2-0.3,0.5-0.7,0.7-1c0,0,0.1,0,0.2,0
			c0.9,0,1.7,0,2.6,0c0.1,0,0.2,0,0.2,0c0,0,0,0,0-0.1c0-0.8,0-1.7,0-2.5c0-0.7-0.6-1.1-1.3-1C111.1,38,110.8,38.3,110.2,39z"/>
		<path class="st1" d="M56.9,41.6c0-0.1,0-0.2,0-0.3c0-1.9,0-3.8,0-5.6c0-0.2,0.1-0.3,0.3-0.3c0.3-0.1,0.6-0.2,1-0.3
			c0,2.2,0,4.4,0,6.6c0.4,0,0.7-0.1,1.1-0.1c0.4-0.1,0.6-0.5,0.6-1.1c0-1.8,0-3.5,0-5.3c0-0.1,0-0.2,0-0.3c0.4-0.1,0.8-0.2,1.2-0.3
			c0,0.1,0,0.2,0,0.3c0,1.9,0,3.7,0,5.6c0,0.8,0.4,1.2,1.2,1.2c0.6,0,1.3,0,1.9,0c0-0.1,0-0.2,0-0.3c0-0.7,0-1.5,0-2.2
			c0.1-1.3,1-2.1,2.3-2.2c0.8,0,1.4,0.2,2,0.8c-0.3,0.3-0.6,0.5-0.9,0.8c-0.1-0.1-0.2-0.2-0.2-0.2c-0.4-0.3-0.8-0.4-1.3-0.2
			c-0.4,0.2-0.7,0.5-0.7,1c0,0.8,0,1.6,0,2.5c0.1,0,0.2,0,0.2,0c0.9,0,1.8,0,2.8,0c0.2,0,0.3,0,0.4,0.2c0.2,0.3,0.5,0.6,0.7,0.9
			c-0.1,0-0.2,0-0.3,0c-2.3,0-4.7,0-7,0c-0.6,0-1.2-0.2-1.7-0.6c-0.3,0.2-0.6,0.3-0.9,0.5c-0.2,0.1-0.4,0.1-0.6,0.1
			c-1.3,0-2.6,0-3.9,0c0.2-0.4,0.4-0.7,0.5-1c0,0,0.1,0,0.2,0C56.1,41.6,56.5,41.6,56.9,41.6z"/>
		<path class="st1" d="M136.2,41.6c0.5,0,1,0,1.5,0c0.7-0.1,1-0.5,1-1.2c0-0.9,0-1.9,0-2.8c0-0.2,0.1-0.3,0.2-0.3
			c0.3-0.1,0.7-0.2,1-0.3c0,0.4,0,0.8,0,1.1c0,0.8,0,1.6,0,2.3c0,1.4-0.9,2.3-2.3,2.3c-3,0-6,0-8.9,0c-0.9,0-1.6-0.6-1.6-1.5
			c0-2,0-4,0-6.1c0-0.1,0.1-0.2,0.1-0.2c0.4-0.1,0.7-0.2,1.1-0.3c0,0.1,0,0.2,0,0.3c0,2,0,4,0,6.1c0,0.5,0.2,0.7,0.7,0.7
			c0.7,0,1.4,0,2.1,0c0.1,0,0.1,0,0.2,0c0-1.1,0-2.1,0-3.2c0.4-0.1,0.8-0.2,1.2-0.3c0,1.2,0,2.4,0,3.5c0.8,0,1.6,0,2.4,0
			c0-0.1,0-0.2,0-0.3c0-1.1,0-2.1,0-3.2c0-0.2,0-0.3,0.2-0.3c0.3-0.1,0.6-0.2,1-0.3C136.2,38.9,136.2,40.2,136.2,41.6z"/>
		<path class="st1" d="M97.8,37c0,1.2,0,2.5,0,3.7c0,1.1-0.8,1.9-2,2c-0.8,0.1-1.7,0-2.5,0c-0.6,0-0.9-0.3-1.2-0.7c0,0,0,0,0,0
			c-0.3,0.5-0.7,0.7-1.3,0.8c-0.5,0.1-1,0.1-1.5-0.1c-0.7-0.2-1.1-0.7-1.2-1.4c-0.2-0.8-0.2-1.6,0-2.5c0.3-1,0.9-1.6,2.1-1.7
			c0.9,0,1.8,0,2.7,0c0,0,0,0,0.1,0c0,0.1,0,0.2,0,0.2c0,1,0,2,0,3c0,0.2,0,0.3,0,0.5c0.1,0.5,0.4,0.8,1.1,0.8c0.5,0,1.1,0,1.6,0
			c0.7-0.1,1.1-0.4,1.1-1.2c0-1,0-1.9,0-2.9c0-0.2,0-0.3,0.2-0.3C97.2,37.2,97.5,37.1,97.8,37z M91.5,38c0,0-0.1,0-0.1,0
			c-0.4,0-0.8,0-1.2,0c-0.7,0.1-1,0.3-1.1,1c-0.1,0.6-0.1,1.2,0,1.8c0.1,0.3,0.3,0.6,0.6,0.8c0.8,0.2,1.7,0.1,1.7-1
			C91.6,39.7,91.6,38.8,91.5,38C91.6,38,91.6,38,91.5,38z"/>
		<path class="st1" d="M100.1,34.5c0,0.1,0,0.2,0,0.3c0,2,0,4,0,6c0,0.5,0.2,0.7,0.7,0.7c0.6,0,1.3,0,1.9,0c0.1,0,0.1,0,0.2,0
			c0-0.4,0-0.8,0-1.1c0-0.5,0-1.1,0.1-1.6c0.3-1.4,1.4-2,2.8-1.9c0.6,0.1,1.1,0.3,1.5,0.7c-0.3,0.3-0.6,0.5-0.9,0.8
			c-0.1-0.1-0.2-0.2-0.3-0.2c-0.4-0.3-0.8-0.4-1.2-0.2c-0.4,0.2-0.7,0.5-0.7,1c0,0.8,0,1.6,0,2.5c0.1,0,0.2,0,0.2,0
			c0.9,0,1.9,0,2.8,0c0.1,0,0.2,0,0.3,0.2c0.2,0.3,0.5,0.6,0.8,0.9c-0.1,0-0.2,0-0.2,0c-2.5,0-5.1,0-7.6,0c-1,0-1.6-0.6-1.6-1.6
			c0-2,0-3.9,0-5.9c0-0.2,0-0.3,0.2-0.3C99.4,34.7,99.7,34.6,100.1,34.5z"/>
		<path class="st1" d="M78.7,42.6c-0.4,0-0.8,0-1.2,0c0-2.6,0-5.2,0-7.7c0.4-0.1,0.8-0.2,1.2-0.4C78.7,37.2,78.7,39.9,78.7,42.6z"/>
		<path class="st1" d="M145,35.2c0-0.4,0.3-0.7,0.7-0.7c0.4,0,0.7,0.3,0.6,0.7c0,0.4-0.3,0.7-0.7,0.7C145.3,35.9,145,35.5,145,35.2z
			"/>
		<path class="st1" d="M90.5,35.2c0,0.4-0.3,0.7-0.7,0.7c-0.4,0-0.7-0.3-0.7-0.7c0-0.4,0.3-0.7,0.6-0.7
			C90.2,34.5,90.5,34.8,90.5,35.2z"/>
		<path class="st1" d="M92.2,35.2c0,0.4-0.3,0.7-0.7,0.7c-0.3,0-0.6-0.3-0.6-0.7c0-0.4,0.3-0.7,0.7-0.7
			C91.9,34.5,92.2,34.8,92.2,35.2z"/>
		<path class="st1" d="M51,38.7c0,0.4-0.3,0.7-0.6,0.7c-0.4,0-0.7-0.3-0.7-0.6c0-0.4,0.3-0.7,0.6-0.7C50.7,38.1,51,38.3,51,38.7z"/>
	</g>
	<path class="st0" d="M24.5,36.6l-13.7,0c-0.3,0-0.6-0.3-0.7-0.6c-0.2-1.4-0.6-3.2-2-4.6c0,0,0,0,0,0c-3.3-2.8-5.2-6.9-5.2-11.2
		C2.9,12,9.5,5.4,17.6,5.4c1,0,1.9,0.1,2.8,0.3l-1.4,1.1c-0.5-0.1-1-0.1-1.5-0.1c-7.4,0-13.4,6-13.4,13.4c0,4,1.8,7.7,4.8,10.3
		c0,0,0.1,0.1,0.1,0.1c1.4,1.5,1.9,3.3,2.2,4.8l12.6,0c0.2-1.5,0.8-3.4,2.2-4.8c3.1-2.6,4.9-6.4,4.9-10.3c0-2.4-0.6-4.6-1.7-6.6
		l1-0.8c1.3,2.2,2,4.7,2,7.4c0,4.4-1.9,8.5-5.3,11.3c-1.3,1.3-1.8,3.3-1.9,4.6C25.1,36.3,24.8,36.6,24.5,36.6z"/>
	<path class="st0" d="M24.5,39.3H10.8c-0.4,0-0.7-0.3-0.7-0.7c0-0.4,0.3-0.7,0.7-0.7h13.7c0.4,0,0.7,0.3,0.7,0.7
		C25.2,39,24.9,39.3,24.5,39.3z"/>
	<path class="st0" d="M24.5,42.2H10.8c-0.4,0-0.7-0.3-0.7-0.7c0-0.4,0.3-0.7,0.7-0.7h13.7c0.4,0,0.7,0.3,0.7,0.7
		C25.2,41.9,24.9,42.2,24.5,42.2z"/>
	<path class="st0" d="M20.5,45h-5.7c-0.4,0-0.7-0.3-0.7-0.7c0-0.4,0.3-0.7,0.7-0.7h5.7c0.4,0,0.7,0.3,0.7,0.7
		C21.2,44.7,20.9,45,20.5,45z"/>
	<linearGradient id="SVGID_1_" gradientUnits="userSpaceOnUse" x1="-14.6868" y1="11.6809" x2="40.8835" y2="11.6809">
		<stop  offset="0" style="stop-color:#2CC1D7"/>
		<stop  offset="0.2595" style="stop-color:#69C6B9"/>
		<stop  offset="0.8464" style="stop-color:#BCD860"/>
		<stop  offset="1" style="stop-color:#CFDD3D"/>
	</linearGradient>
	<path class="st2" d="M26.1,14.5c-0.2,0-0.5-0.1-0.6-0.3c-1.6-2.1-4-3.5-6.6-3.8c-0.4-0.1-0.7-0.5-0.7-0.9c0.1-0.4,0.5-0.7,0.9-0.7
		c3,0.4,5.8,2,7.7,4.4c0.3,0.3,0.2,0.8-0.1,1.1C26.4,14.5,26.2,14.5,26.1,14.5z"/>
	<path class="st3" d="M3,29c0.5,0,0.9,0.4,0.9,0.9S3.5,30.9,3,30.9c-0.5,0-0.9-0.4-0.9-0.9S2.5,29,3,29"/>
	<path class="st4" d="M8.6,4.3c0.5,0,0.9,0.4,0.9,0.9c0,0.5-0.4,0.9-0.9,0.9c-0.5,0-0.9-0.4-0.9-0.9C7.7,4.7,8.1,4.3,8.6,4.3"/>
	<path class="st5" d="M34.8,19.7c0.5,0,0.9,0.4,0.9,0.9s-0.4,0.9-0.9,0.9c-0.5,0-0.9-0.4-0.9-0.9S34.3,19.7,34.8,19.7"/>
	<path class="st6" d="M13.6,22.2c-0.2,0-0.4,0-0.6-0.1c-0.4-0.2-0.7-0.5-0.7-0.9l-1.2-7.9c-0.1-0.4,0.1-0.8,0.4-1.1
		c0.3-0.3,0.8-0.3,1.2-0.2l7.5,2.9c0.4,0.2,0.7,0.5,0.7,0.9c0.1,0.4-0.1,0.8-0.4,1.1l-6.2,5C14,22.1,13.8,22.1,13.6,22.2z"/>
	<path class="st6" d="M18.4,33.6c0,0-0.1,0-0.1,0c-0.1,0-0.1-0.1-0.1-0.2v-1.7c0-0.1,0-0.2,0.1-0.2c0.1,0,0.2,0,0.2,0l1.4,0.8
		c0.1,0,0.1,0.1,0.1,0.2c0,0.1,0,0.2-0.1,0.2l-1.4,0.8C18.4,33.5,18.4,33.6,18.4,33.6z"/>
	<path class="st7" d="M15.5,26.6c-0.1,0-0.2-0.1-0.2-0.1c-0.1-0.1-0.2-0.3-0.1-0.5l0.8-3.2c0-0.2,0.2-0.3,0.3-0.3
		c0.2,0,0.3,0,0.5,0.1l2.3,2.3c0.1,0.1,0.2,0.3,0.1,0.5c0,0.2-0.2,0.3-0.3,0.3l-3.1,0.9C15.7,26.6,15.6,26.6,15.5,26.6z"/>
	<path class="st8" d="M18.2,20C18.1,20,18.1,20,18.2,20C18.1,20,18.1,20,18.2,20L18,20.2v-0.4c0.1-0.1,0.1-0.1,0.2-0.1
		c0.1,0,0.2,0.1,0.2,0.1l0.7,1.5c0,0.1,0,0.2,0,0.2c-0.1,0.1-0.1,0.1-0.2,0.1L18,21.7v-0.2l0.8,0.1c0,0,0,0,0,0c0,0,0,0,0,0L18.2,20
		C18.2,20,18.2,20,18.2,20L18.2,20z M18,20.2v-0.4c0,0,0,0,0,0l-1,1.3c-0.1,0.1-0.1,0.2,0,0.2c0,0,0,0.1,0.1,0.1c0,0,0.1,0,0.1,0
		l0.9,0.1v-0.2l-0.8-0.1c0,0,0,0,0,0c0,0,0,0,0,0L18,20.2L18,20.2z"/>
	<path class="st9" d="M21.5,25.5l0.8,0c0,0,0,0,0,0c0,0,0,0,0,0l-0.8-1.3V24c0.1,0,0.1,0,0.2,0.1l0.8,1.3c0,0.1,0,0.2,0,0.2
		c0,0.1-0.1,0.1-0.2,0.1l-0.8,0V25.5L21.5,25.5z M21.5,24.2C21.5,24.2,21.5,24.2,21.5,24.2L21.5,24.2l0-0.2c0,0,0,0,0,0
		c-0.1,0-0.2,0-0.2,0.1l-0.8,1.3c0,0.1,0,0.2,0,0.2c0,0,0,0.1,0.1,0.1c0,0,0.1,0,0.1,0l0.8,0v-0.2l-0.8,0c0,0,0,0,0,0c0,0,0,0,0,0
		L21.5,24.2C21.5,24.2,21.5,24.2,21.5,24.2C21.5,24.2,21.5,24.2,21.5,24.2L21.5,24.2z"/>
	<path class="st10" d="M17.5,28.6l0.5-0.3c0,0,0,0,0,0c0,0,0,0,0,0l-0.5-0.3v-0.2l0.6,0.3c0.1,0,0.1,0.1,0.1,0.1s0,0.1-0.1,0.1
		l-0.6,0.3V28.6L17.5,28.6z M17,27.8C17,27.8,17,27.8,17,27.8l0.5,0.3v-0.2l-0.4-0.2c-0.1,0-0.1,0-0.2,0c-0.1,0-0.1,0.1-0.1,0.1v1.1
		c0,0.1,0,0.1,0.1,0.1c0,0,0.1,0,0.1,0c0,0,0.1,0,0.1,0l0.4-0.2v-0.2L17,28.9c0,0,0,0,0,0c0,0,0,0,0,0L17,27.8
		C17,27.8,17,27.8,17,27.8C17,27.8,17,27.8,17,27.8L17,27.8z"/>
	<path class="st11" d="M22.5,16.7C22.5,16.7,22.5,16.7,22.5,16.7C22.5,16.7,22.5,16.7,22.5,16.7l-0.1,0.1L22.5,16.7
		c-0.1-0.1,0-0.1,0-0.1c0,0,0.1,0,0.1,0.1l0.3,0.8c0,0,0,0.1,0,0.1c0,0-0.1,0.1-0.1,0l-0.4,0v-0.1l0.4,0.1c0,0,0,0,0,0c0,0,0,0,0,0
		L22.5,16.7C22.5,16.7,22.5,16.7,22.5,16.7L22.5,16.7z M22.4,16.8v-0.2c0,0,0,0,0,0l-0.5,0.7c0,0,0,0.1,0,0.1c0,0,0,0,0,0.1
		s0,0,0.1,0l0.4,0.1v-0.1L22,17.4c0,0,0,0,0,0c0,0,0,0,0,0L22.4,16.8L22.4,16.8z"/>
	<path class="st12" d="M13.6,22.2c-0.2,0-0.3,0-0.5,0l2.5-9l4.4,1.7c0.4,0.2,0.7,0.5,0.7,0.9c0.1,0.4-0.1,0.8-0.4,1.1l-6.2,5
		C14,22.1,13.8,22.1,13.6,22.2z"/>
	<path class="st13" d="M13.6,22.2c-0.2,0-0.3,0-0.5,0l5.3-7.9l1.6,0.6c0.4,0.2,0.7,0.5,0.7,0.9c0.1,0.4-0.1,0.8-0.4,1.1l-6.2,5
		C14,22.1,13.8,22.1,13.6,22.2z"/>
	<g>
		<path class="st14" d="M23.6,23.2c0.1,0,0.2-0.1,0.2-0.1C24,23,24,22.8,24,22.6L23.1,19c0-0.2-0.2-0.3-0.4-0.4
			c-0.2-0.1-0.4,0-0.5,0.1l-2.7,2.6c-0.1,0.1-0.2,0.3-0.2,0.5c0,0.2,0.2,0.3,0.4,0.4l3.6,1C23.4,23.3,23.5,23.3,23.6,23.2z"/>
		<g>
			<path class="st15" d="M23.6,23.2c0.1,0,0.1,0,0.2-0.1l-2.7-3.4l-1.6,1.5c-0.1,0.1-0.2,0.3-0.2,0.5c0,0.2,0.2,0.3,0.4,0.4l3.6,1
				C23.4,23.3,23.5,23.3,23.6,23.2z"/>
			<path class="st16" d="M23.6,23.2c0.1,0,0.1,0,0.2-0.1l-3.7-2.4l-0.6,0.6c-0.1,0.1-0.2,0.3-0.2,0.5c0,0.2,0.2,0.3,0.4,0.4l3.6,1
				C23.4,23.3,23.5,23.3,23.6,23.2z"/>
		</g>
	</g>
	<path class="st17" d="M15.5,26.6c-0.1,0-0.1,0-0.2-0.1l2.3-3l1.4,1.3c0.1,0.1,0.2,0.3,0.1,0.5c0,0.2-0.2,0.3-0.3,0.3l-3.1,0.9
		C15.7,26.6,15.6,26.6,15.5,26.6z"/>
	<path class="st18" d="M15.5,26.6c-0.1,0-0.1,0-0.2-0.1l3.2-2.1l0.5,0.5c0.1,0.1,0.2,0.3,0.1,0.5c0,0.2-0.2,0.3-0.3,0.3l-3.1,0.9
		C15.7,26.6,15.6,26.6,15.5,26.6z"/>
	<path class="st19" d="M21.7,30c0.1,0,0.1,0,0.2-0.1c0.1-0.1,0.2-0.2,0.2-0.3V27c0-0.1-0.1-0.3-0.2-0.3c-0.1-0.1-0.3-0.1-0.4,0
		L19.3,28c-0.1,0.1-0.2,0.2-0.2,0.3s0.1,0.3,0.2,0.3l2.2,1.3C21.5,29.9,21.6,30,21.7,30z"/>
	<path class="st20" d="M21.7,30c0,0,0.1,0,0.1,0l-1.2-2.7L19.3,28c-0.1,0.1-0.2,0.2-0.2,0.3c0,0.1,0.1,0.3,0.2,0.3l2.2,1.3
		C21.5,29.9,21.6,30,21.7,30z"/>
	<path class="st21" d="M21.7,30c0,0,0.1,0,0.1,0l-2.1-2.2L19.3,28c-0.1,0.1-0.2,0.2-0.2,0.3c0,0.1,0.1,0.3,0.2,0.3l2.2,1.3
		C21.5,29.9,21.6,30,21.7,30z"/>
	<g>
		<path class="st12" d="M18.2,31.5C18.2,31.5,18.2,31.5,18.2,31.5l1.2,1.5l-0.9,0.5c-0.1,0-0.2,0-0.2,0c-0.1,0-0.1-0.1-0.1-0.2
			l0-1.7C18.1,31.6,18.1,31.6,18.2,31.5z"/>
		<path class="st13" d="M18.2,31.5C18.2,31.5,18.2,31.5,18.2,31.5l0.6,1.8l-0.3,0.2c-0.1,0-0.2,0-0.2,0c-0.1,0-0.1-0.1-0.1-0.2
			l0-1.7C18.1,31.6,18.1,31.6,18.2,31.5z"/>
	</g>
</g>
</svg>
