<?xml version="1.0" encoding="utf-8"?>
<!-- Generator: Adobe Illustrator 22.0.1, SVG Export Plug-In . SVG Version: 6.00 Build 0)  -->
<svg version="1.1" id="Layer_1" xmlns="http://www.w3.org/2000/svg" xmlns:xlink="http://www.w3.org/1999/xlink" x="0px" y="0px"
	 viewBox="0 0 151 50" style="enable-background:new 0 0 151 50;" xml:space="preserve">
<style type="text/css">
	.st0{fill-rule:evenodd;clip-rule:evenodd;fill:#FFFFFF;}
	.st1{fill:#FFFFFF;}
	.st2{fill-rule:evenodd;clip-rule:evenodd;fill:url(#SVGID_1_);}
	.st3{fill-rule:evenodd;clip-rule:evenodd;fill:none;stroke:#15B3C6;stroke-width:2;stroke-miterlimit:2.6131;}
	.st4{fill-rule:evenodd;clip-rule:evenodd;fill:none;stroke:#B7D43D;stroke-width:2;stroke-miterlimit:2.6131;}
	.st5{fill-rule:evenodd;clip-rule:evenodd;fill:none;stroke:#C9037B;stroke-width:2;stroke-miterlimit:2.6131;}
	.st6{fill-rule:evenodd;clip-rule:evenodd;fill:#38C1CF;}
	.st7{fill-rule:evenodd;clip-rule:evenodd;fill:#E70D8D;}
	.st8{fill-rule:evenodd;clip-rule:evenodd;fill:#582E91;}
	.st9{fill-rule:evenodd;clip-rule:evenodd;fill:#E3038C;}
	.st10{fill-rule:evenodd;clip-rule:evenodd;fill:#80C342;}
	.st11{fill-rule:evenodd;clip-rule:evenodd;fill:#7FC34B;}
	.st12{fill-rule:evenodd;clip-rule:evenodd;fill:#15B3C6;}
	.st13{fill-rule:evenodd;clip-rule:evenodd;fill:#1493A4;}
	.st14{fill-rule:evenodd;clip-rule:evenodd;fill:#C2D957;}
	.st15{fill-rule:evenodd;clip-rule:evenodd;fill:#B7D43D;}
	.st16{fill-rule:evenodd;clip-rule:evenodd;fill:#A2C937;}
	.st17{fill-rule:evenodd;clip-rule:evenodd;fill:#C9037B;}
	.st18{fill-rule:evenodd;clip-rule:evenodd;fill:#A60062;}
	.st19{fill-rule:evenodd;clip-rule:evenodd;fill:#00BFF3;}
	.st20{fill-rule:evenodd;clip-rule:evenodd;fill:#009ECC;}
	.st21{fill-rule:evenodd;clip-rule:evenodd;fill:#0080AB;}
</style>
<g id="ar">
	<polygon class="st0" points="8,42.1 8,35.8 6.9,35.8 6.9,40.3 3.6,35.8 2.5,35.8 2.5,42.1 3.6,42.1 3.6,37.6 6.9,42.1 	"/>
	<path class="st0" d="M14.5,40.7l0.6,1.4h1.1l-2.7-6.3h-1.1l-2.8,6.3h1.1l0.6-1.4H14.5L14.5,40.7z M14.1,39.7L14.1,39.7h-2.4
		l1.2-2.8L14.1,39.7z"/>
	<path class="st0" d="M19.9,35.8c-1.4,0-2.3,0.7-2.3,1.8c0,2.2,3.4,1.5,3.4,2.9c0,0.5-0.4,0.8-1.2,0.8c-0.7,0-1.5-0.3-2.1-0.9
		l-0.5,0.9c0.6,0.6,1.6,1,2.6,1c1.4,0,2.4-0.7,2.4-1.8c0-2.3-3.4-1.5-3.4-2.9c0-0.4,0.4-0.7,1-0.7c0.5,0,1.2,0.2,1.8,0.6l0.4-0.9
		C21.5,36,20.7,35.8,19.9,35.8z"/>
	<path class="st0" d="M28.3,40.7l0.6,1.4H30l-2.7-6.3h-1.1l-2.8,6.3h1.1l0.6-1.4H28.3L28.3,40.7z M27.9,39.7L27.9,39.7h-2.4l1.2-2.8
		L27.9,39.7z"/>
	<path class="st0" d="M38,40.7l0.6,1.4h1.1L37,35.8h-1.1l-2.8,6.3h1.1l0.6-1.4H38L38,40.7z M37.6,39.7L37.6,39.7h-2.4l1.2-2.8
		L37.6,39.7z"/>
	<path class="st0" d="M41.4,35.8v6.3H44c1.9,0,3.3-1.3,3.3-3.1c0-1.8-1.4-3.1-3.3-3.1H41.4L41.4,35.8z M42.5,36.8L42.5,36.8H44
		c1.2,0,2.2,0.9,2.2,2.2c0,1.3-0.9,2.2-2.2,2.2h-1.5V36.8z"/>
	<polygon class="st0" points="51.9,42.1 54.5,35.8 53.4,35.8 51.4,40.9 49.5,35.8 48.3,35.8 50.8,42.1 	"/>
	<polygon class="st0" points="60.6,36.8 60.6,35.8 56.2,35.8 56.2,42.1 60.8,42.1 60.8,41.1 57.2,41.1 57.2,39.4 60.3,39.4 
		60.3,38.5 57.2,38.5 57.2,36.8 	"/>
	<path class="st0" d="M66.9,42.1h1.2L66.7,40c0.8-0.3,1.3-1,1.3-2c0-1.4-0.9-2.1-2.5-2.1h-2.6v6.3h1.1v-1.9h1.5c0.1,0,0.2,0,0.3,0
		L66.9,42.1L66.9,42.1z M63.9,39.3L63.9,39.3v-2.5h1.5c1,0,1.5,0.4,1.5,1.2c0,0.9-0.6,1.3-1.5,1.3H63.9z"/>
	<polygon class="st0" points="74.5,36.8 74.5,35.8 69.4,35.8 69.4,36.8 71.4,36.8 71.4,42.1 72.5,42.1 72.5,36.8 	"/>
	<rect x="76.2" y="35.8" class="st0" width="1.1" height="6.3"/>
	<path class="st0" d="M81.8,35.8c-1.4,0-2.3,0.7-2.3,1.8c0,2.2,3.4,1.5,3.4,2.9c0,0.5-0.4,0.8-1.2,0.8c-0.7,0-1.5-0.3-2.1-0.9
		l-0.5,0.9c0.6,0.6,1.6,1,2.6,1c1.4,0,2.4-0.7,2.4-1.8c0-2.3-3.4-1.5-3.4-2.9c0-0.4,0.4-0.7,1-0.7c0.5,0,1.2,0.2,1.8,0.6l0.4-0.9
		C83.4,36,82.6,35.8,81.8,35.8z"/>
	<rect x="86.2" y="35.8" class="st0" width="1.1" height="6.3"/>
	<polygon class="st0" points="95.2,42.1 95.2,35.8 94.1,35.8 94.1,40.3 90.7,35.8 89.7,35.8 89.7,42.1 90.8,42.1 90.8,37.6 
		94.1,42.1 	"/>
	<path class="st0" d="M102.5,39v1.8c-0.4,0.3-1,0.4-1.4,0.4c-1.3,0-2.3-1-2.3-2.2c0-1.2,1-2.2,2.3-2.2c0.7,0,1.3,0.3,1.8,0.7
		l0.6-0.8c-0.6-0.5-1.5-0.9-2.4-0.9c-1.9,0-3.4,1.4-3.4,3.2c0,1.8,1.4,3.2,3.3,3.2c0.9,0,1.8-0.3,2.4-0.8V39H102.5z"/>
	<rect x="108.4" y="4" class="st0" width="2" height="41"/>
	<g>
		<path class="st1" d="M1.4,26.6c0.1-0.4,0.3-0.9,0.4-1.3C1.8,25.1,2,25,2.2,24.9c0.5-0.1,1-0.2,1.5-0.3c-0.2,0.5-0.3,0.9-0.5,1.4
			c-0.1,0.5-0.1,1,0,1.5c0.4,1.5,1.5,1.9,2.8,1.7c1.1-0.2,1.6-0.8,1.6-1.9c0-1.3,0-2.5,0-3.8c0-0.2,0.1-0.3,0.3-0.4
			c0.6-0.3,1.1-0.6,1.7-0.9c0,0.1,0,0.1,0,0.1c0,1.7,0,3.4,0,5.1c0,2-1.5,3.5-3.6,3.6c-0.8,0.1-1.6,0-2.4-0.3c-1.3-0.6-2-1.6-2.2-3
			c0-0.1,0-0.2-0.1-0.2C1.4,27.2,1.4,26.9,1.4,26.6z"/>
		<path class="st1" d="M62.8,18.5c0.6,0.3,0.9,0.7,0.7,1.3c-0.1,0.5-0.6,0.8-1.2,0.7c-0.5-0.1-0.9-0.6-0.8-1.2
			c0.1-0.4,0.3-0.7,0.7-0.8C62.4,18.5,62.6,18.5,62.8,18.5z"/>
		<path class="st1" d="M66.3,32.2c-0.4-0.2-0.7-0.5-0.7-1c0-0.6,0.4-1,1-1c0.6,0,1,0.4,1,0.9c0,0.5-0.2,0.8-0.7,1
			C66.7,32.2,66.5,32.2,66.3,32.2z"/>
		<path class="st1" d="M102.9,7.7c-0.2,0.4-0.5,0.7-1.1,0.7c-0.6,0-1-0.5-1-1.1c0.1-0.6,0.6-1,1.2-0.9c0.4,0.1,0.7,0.3,0.9,0.7
			C102.9,7.3,102.9,7.5,102.9,7.7z"/>
		<path class="st1" d="M68.6,32.2c-0.6-0.3-0.8-0.7-0.7-1.3c0.1-0.4,0.6-0.7,1.1-0.7c0.5,0,0.9,0.4,0.9,0.8c0,0.5-0.2,0.9-0.7,1.1
			C69.1,32.2,68.9,32.2,68.6,32.2z"/>
		<path class="st1" d="M60.5,18.5c0.7,0.3,0.9,0.8,0.6,1.4c-0.2,0.4-0.6,0.7-1.1,0.6c-0.5-0.1-0.8-0.4-0.8-0.9
			c0-0.6,0.1-0.8,0.7-1.1C60.1,18.5,60.3,18.5,60.5,18.5z"/>
		<path class="st1" d="M16.9,21.2c0,2,0,3.9,0,5.9c0.5,0,1,0.1,1.5-0.1c0.3-0.1,0.5-0.4,0.5-0.8c0-0.2,0-0.4,0-0.6c0-1.7,0-3.4,0-5
			c0-0.3,0.1-0.4,0.3-0.5c0.5-0.3,1.1-0.5,1.6-0.8c0,0.1,0,0.2,0,0.3c0,2.1,0,4.2,0,6.3c0,1,0.2,1.2,1.3,1.2c0.8,0,1.6,0,2.4,0
			c0,0,0,0,0.1,0c-0.1-0.3-0.2-0.6-0.3-0.9c-0.4-1.8,0.2-3.2,1.9-3.9c1.4-0.6,2.9-0.2,3.8,0.9c0.1,0.1,0.1,0.3,0.1,0.4
			c0,0.5,0,0.9,0,1.4c0,0,0,0-0.1,0.1c-0.2-0.2-0.3-0.3-0.5-0.5c-0.5-0.5-1.2-0.8-1.9-0.8c-1,0-1.6,0.6-1.5,1.7
			c0.1,1.1,0.8,1.6,2,1.6c0.9,0,1.8,0,2.7,0c0,0.6,0,1.2,0,1.8c-0.1,0-0.2,0-0.3,0c-2.9,0-5.9,0-8.8,0c-0.7,0-1.3-0.1-1.8-0.5
			c-0.1,0-0.2,0-0.3,0c-0.6,0.4-1.2,0.5-1.9,0.5c-1.8,0-3.6,0-5.4,0c-0.1,0-0.2,0-0.3,0c0.3-0.6,0.6-1.2,0.9-1.7
			c0-0.1,0.2-0.1,0.3-0.1c0.6,0,1.2,0,1.8,0c0-0.1,0-0.2,0-0.3c0-1.4,0-2.8,0-4.2c0-0.2,0.1-0.4,0.3-0.5
			C15.8,21.7,16.3,21.5,16.9,21.2z"/>
		<path class="st1" d="M86.7,15.9c-0.6,0.5-1.2,0.7-1.9,0.6c-0.5,0-1,0-1.4,0c-0.7,0-1.2-0.2-1.8-0.6c-0.7,0.6-1.5,0.7-2.3,0.6
			c-0.7,0-1.4,0-2.1,0c-1.6,0-2.7-1.1-2.7-2.6c0-1.9,0-3.9,0-5.8c0-0.1,0-0.2,0.1-0.2c0.6-0.3,1.2-0.6,1.9-1c0,0.2,0,0.3,0,0.4
			c0,2.1,0,4.1,0,6.2c0,1,0.2,1.2,1.2,1.2c0.6,0,1.3,0,1.9,0c0.7,0,1-0.3,1-1c0-0.6,0-1.2,0-1.8c0-0.2,0-0.3,0.2-0.3
			c0.6-0.3,1.1-0.6,1.7-0.8c0,0,0,0,0.1,0c0,0.1,0,0.2,0,0.3c0,0.9,0,1.8,0,2.6c0,0.8,0.3,1.1,1.1,1.1c0.4,0,0.7,0,1.1,0
			c0.6,0,0.9-0.3,0.9-0.9c0-0.8,0-1.5,0-2.3c0-0.2,0-0.2,0.2-0.3c0.6-0.3,1.2-0.6,1.8-0.9c0,0.1,0,0.2,0,0.3c0,1,0,2,0,3.1
			c0,0.7,0.3,1,1,1c0.4,0,0.8,0,1.2,0c0.6,0,0.9-0.2,0.9-0.8c0-0.9,0-1.8,0-2.7c0-0.3,0.1-0.4,0.3-0.5c0.5-0.2,1.1-0.5,1.6-0.8
			c0,0.1,0,0.1,0,0.1c0,1.3,0,2.6,0,3.9c0,0.8-0.3,1.5-1,2c-0.4,0.3-0.8,0.5-1.3,0.5c-0.8,0-1.6,0-2.4,0
			C87.6,16.4,87.1,16.2,86.7,15.9z"/>
		<path class="st1" d="M88.5,23.6c0.3-0.5,0.6-1.1,1-1.6c1,0.6,1.8,1.2,2.2,2.3c0.2,0.5,0.3,1.1,0.4,1.7c0.1,0.8,0.4,1,1.2,1.1
			c0.5,0,0.9,0,1.4,0c0.8,0,1.2-0.4,1.2-1.2c0-1.8,0-3.6,0-5.4c0-0.2,0.1-0.3,0.2-0.4c0.6-0.3,1.1-0.6,1.7-0.9c0,0.2,0,0.3,0,0.4
			c0,2.1,0,4.2,0,6.3c0,0.1,0,0.3,0,0.4c0.1,0.5,0.2,0.7,0.7,0.7c0.7,0,1.5,0,2.2,0c0.5,0,0.7-0.3,0.8-0.8c0-0.2,0-0.3,0-0.5
			c0-1.7,0-3.4,0-5.2c0-0.2,0-0.3,0.2-0.4c0.6-0.3,1.1-0.6,1.7-0.9c0,0.1,0,0.2,0,0.2c0,2.1,0,4.2,0,6.3c0,0.9-0.3,1.7-1,2.3
			c-0.5,0.4-1,0.7-1.6,0.7c-0.9,0-1.8,0-2.7,0c-0.6,0-0.9-0.2-1.5-0.6c-0.4,0.3-0.9,0.6-1.5,0.6c-0.9,0-1.9,0-2.8,0
			c-0.4,0-0.8-0.3-1.2-0.4c-0.5,0.5-1.1,0.6-1.8,0.5c-1.1,0-2.1,0-3.2,0c-0.1,0-0.2,0-0.3,0c0.3-0.6,0.6-1.2,0.9-1.7
			c0-0.1,0.2-0.1,0.2-0.1c0.7,0,1.4,0,2.2,0c0.6,0,0.8-0.2,0.8-0.8c0-1-0.4-1.8-1.2-2.3c-0.1,0-0.1-0.1-0.2-0.1
			C88.6,23.7,88.6,23.7,88.5,23.6z"/>
		<path class="st1" d="M84.3,24.9c-0.4-0.3-0.8-0.6-1.2-0.9c-0.5-0.3-1-0.4-1.6-0.3c-0.5,0.1-0.9,0.4-1.1,0.9
			c-0.3,1.1,0.2,2.3,1.5,2.3c0.9,0.1,1.8,0,2.8,0c0.1,0,0.2,0,0.4,0c0,0.6,0,1.2,0,1.8c-0.1,0-0.2,0-0.3,0c-2.9,0-5.9,0-8.8,0
			c-1.7,0-2.8-1.1-2.8-2.7c0-1.9,0-3.8,0-5.7c0-0.2,0.1-0.3,0.2-0.4c0.6-0.3,1.1-0.6,1.7-0.9c0,0.2,0,0.3,0,0.4c0,2.1,0,4.2,0,6.3
			c0,0.1,0,0.2,0,0.2c0,0.7,0.3,0.9,1,0.9c0.9,0,1.8,0,2.7,0c-0.1-0.5-0.3-0.9-0.3-1.4c-0.2-1.5,0.4-2.8,1.9-3.4
			c1.3-0.6,2.9-0.3,3.8,0.8c0.1,0.2,0.2,0.3,0.2,0.6C84.3,24.1,84.3,24.5,84.3,24.9z"/>
		<path class="st1" d="M69.9,22.3c0,0.4,0,0.8,0,1.2c0,0.9,0,1.8,0,2.7c0,1.6-1.1,2.6-2.7,2.6c-0.7,0-1.3,0-2,0
			c-1,0-1.7-0.1-2.5-0.9c-0.7,0.5-1.6,0.6-2.4,0.4c-1.2-0.3-2-1.4-2.1-2.7c-0.1-1.1,0.2-2.1,1.1-2.8c0.8-0.6,1.7-0.8,2.6-0.5
			c0.1,0,0.1,0,0.2,0.1c-0.1-0.4,0.2-0.5,0.4-0.6c0.5-0.2,1-0.5,1.5-0.8c0,0.2,0,0.2,0,0.3c0,1.5,0,3,0,4.6c0,0.1,0,0.2,0,0.3
			c0.1,0.5,0.3,0.8,0.9,0.8c0.7,0,1.5,0,2.2,0c0.6,0,0.8-0.3,0.9-0.8c0-0.8,0.1-1.6,0-2.4c0-0.5,0.1-0.8,0.6-0.9
			C69,22.7,69.4,22.5,69.9,22.3C69.9,22.3,69.9,22.3,69.9,22.3z M62.1,25.4c0-0.3,0-0.6,0-0.9c0-0.1,0-0.2-0.1-0.2
			c-0.4-0.3-1.3-0.5-1.7,0.2C60,25,60,25.6,60.3,26.2c0.3,0.6,1.1,0.8,1.6,0.4c0.1-0.1,0.2-0.2,0.2-0.4
			C62.1,25.9,62.1,25.7,62.1,25.4z"/>
		<path class="st1" d="M40.9,19.2c0,0.1,0,0.2,0,0.3c0,2.1,0,4.3,0,6.4c0,1.2-0.7,2.3-1.8,2.7c-0.3,0.1-0.7,0.2-1,0.2
			c-2,0-3.9,0-5.9,0c0,0-0.1,0-0.2,0c0.3-0.6,0.6-1.2,0.9-1.7c0-0.1,0.2-0.1,0.2-0.1c0.6,0,1.2,0,1.8,0c0-0.1,0-0.2,0-0.3
			c0-1.4,0-2.9,0-4.3c0-0.2,0.1-0.3,0.2-0.4c0.6-0.3,1.1-0.6,1.7-0.9c0,2,0,3.9,0,5.9c0.5,0,0.9,0,1.3-0.1c0.5-0.1,0.7-0.5,0.7-1.1
			c0-1,0-1.9,0-2.9c0-0.8,0-1.7,0-2.5c0-0.2,0-0.2,0.2-0.3C39.7,19.8,40.3,19.5,40.9,19.2z"/>
		<path class="st1" d="M48.4,29c0.5,0.1,0.9,0.3,1.4,0.4c0.8,0.2,1.4-0.1,1.7-0.8c0,0,0-0.1,0-0.1c-0.4,0-0.7,0-1.1,0
			c-1.3-0.1-2.3-1.1-2.6-2.4c-0.2-1.1-0.1-2.1,0.6-3c1.1-1.6,3.7-1.6,4.8-0.1c0.3,0.5,0.5,1,0.5,1.6c0,1.1,0,2.2,0,3.3
			c-0.1,1.6-1.1,2.7-2.7,3c-0.9,0.2-1.7,0-2.4-0.4c-0.1,0-0.1-0.1-0.1-0.2C48.4,29.9,48.4,29.5,48.4,29z M51.7,25.5
			C51.7,25.5,51.7,25.5,51.7,25.5c0-0.3,0-0.7,0-1c0-0.5-0.3-0.7-0.8-0.7c-0.5,0-0.8,0.2-1,0.7c-0.3,0.6-0.3,1.2,0,1.9
			c0.3,0.6,1.1,0.9,1.7,0.5c0.1-0.1,0.2-0.2,0.2-0.3C51.7,26.1,51.7,25.8,51.7,25.5z"/>
		<path class="st1" d="M96.9,6.9c0,1,0,2,0,2.9c0,1.3,0,2.6,0,3.9c0,0.7,0.3,1,1,1c0.6,0,1.3,0,1.9,0c0.7,0,1-0.3,1-1
			c0-0.9,0-1.8,0-2.6c0-0.2,0.1-0.3,0.2-0.4c0.6-0.3,1.1-0.6,1.7-0.9c0,0.1,0,0.2,0,0.3c0,1.2,0,2.4,0,3.6c0,1.7-1.1,2.7-2.8,2.7
			c-0.7,0-1.5,0-2.2,0c-1.7,0-2.8-1.1-2.8-2.7c0-1.9,0-3.8,0-5.7C95,8,95,7.8,95.1,7.8C95.7,7.5,96.3,7.2,96.9,6.9z"/>
		<path class="st1" d="M45,28.8c-0.7,0-1.3,0-1.9,0c0-0.1,0-0.2,0-0.3c0-2.7,0-5.3,0-8c0-0.2,0-0.3,0.2-0.4c0.6-0.3,1.1-0.6,1.7-0.9
			C45,22.4,45,25.6,45,28.8z"/>
		<path class="st1" d="M4.7,22.4c-0.6,0-1-0.4-1-1c0-0.6,0.4-1,1-1c0.6,0,1,0.4,1,1C5.7,22,5.3,22.4,4.7,22.4z"/>
	</g>
	<g>
		<path class="st0" d="M138,36.2l-13.7,0c-0.3,0-0.6-0.2-0.7-0.6c-0.2-1.3-0.6-3.2-2-4.6c0,0,0,0,0,0c-3.3-2.8-5.2-6.9-5.2-11.2
			c0-8.1,6.6-14.7,14.7-14.7c1,0,1.9,0.1,2.8,0.3l-1.4,1.1c-0.5-0.1-1-0.1-1.5-0.1c-7.4,0-13.4,6-13.4,13.4c0,4,1.7,7.7,4.8,10.3
			c0,0,0.1,0.1,0.1,0.1c1.4,1.4,1.9,3.3,2.2,4.7l12.5,0c0.2-1.5,0.8-3.4,2.2-4.8c3.1-2.6,4.9-6.3,4.9-10.3c0-2.4-0.6-4.6-1.7-6.6
			l1-0.8c1.3,2.2,2,4.7,2,7.4c0,4.4-1.9,8.5-5.3,11.3c-1.3,1.3-1.8,3.2-1.9,4.6C138.7,36,138.4,36.2,138,36.2z"/>
		<path class="st0" d="M138,38.9h-13.7c-0.4,0-0.7-0.3-0.7-0.7c0-0.4,0.3-0.7,0.7-0.7H138c0.4,0,0.7,0.3,0.7,0.7
			C138.7,38.6,138.4,38.9,138,38.9z"/>
		<path class="st0" d="M138,41.8h-13.7c-0.4,0-0.7-0.3-0.7-0.7c0-0.4,0.3-0.7,0.7-0.7H138c0.4,0,0.7,0.3,0.7,0.7
			C138.7,41.5,138.4,41.8,138,41.8z"/>
		<path class="st0" d="M134.1,44.7h-5.7c-0.4,0-0.7-0.3-0.7-0.7c0-0.4,0.3-0.7,0.7-0.7h5.7c0.4,0,0.7,0.3,0.7,0.7
			C134.7,44.4,134.4,44.7,134.1,44.7z"/>
		<linearGradient id="SVGID_1_" gradientUnits="userSpaceOnUse" x1="98.9634" y1="11.3982" x2="154.3863" y2="11.3982">
			<stop  offset="0" style="stop-color:#2CC1D7"/>
			<stop  offset="0.2595" style="stop-color:#69C6B9"/>
			<stop  offset="0.8464" style="stop-color:#BCD860"/>
			<stop  offset="1" style="stop-color:#CFDD3D"/>
		</linearGradient>
		<path class="st2" d="M139.6,14.2c-0.2,0-0.5-0.1-0.6-0.3c-1.6-2.1-4-3.5-6.6-3.8c-0.4-0.1-0.7-0.5-0.7-0.9
			c0.1-0.4,0.5-0.7,0.9-0.7c3,0.4,5.8,2,7.6,4.4c0.3,0.3,0.2,0.8-0.1,1.1C139.9,14.2,139.8,14.2,139.6,14.2z"/>
		<path class="st3" d="M116.6,28.7c0.5,0,0.9,0.4,0.9,0.9c0,0.5-0.4,0.9-0.9,0.9c-0.5,0-0.9-0.4-0.9-0.9
			C115.7,29.1,116.1,28.7,116.6,28.7"/>
		<path class="st4" d="M122.2,4.1c0.5,0,0.9,0.4,0.9,0.9c0,0.5-0.4,0.9-0.9,0.9c-0.5,0-0.9-0.4-0.9-0.9
			C121.3,4.5,121.7,4.1,122.2,4.1"/>
		<path class="st5" d="M148.3,19.4c0.5,0,0.9,0.4,0.9,0.9c0,0.5-0.4,0.9-0.9,0.9c-0.5,0-0.9-0.4-0.9-0.9
			C147.4,19.8,147.8,19.4,148.3,19.4"/>
		<path class="st6" d="M127.2,21.9c-0.2,0-0.4,0-0.6-0.1c-0.4-0.2-0.7-0.5-0.7-0.9l-1.2-7.9c-0.1-0.4,0.1-0.8,0.4-1.1
			c0.3-0.3,0.8-0.3,1.2-0.2l7.4,2.9c0.4,0.2,0.7,0.5,0.7,0.9c0.1,0.4-0.1,0.8-0.4,1.1l-6.2,5C127.6,21.7,127.4,21.8,127.2,21.9z"/>
		<path class="st6" d="M131.9,33.2c0,0-0.1,0-0.1,0c-0.1,0-0.1-0.1-0.1-0.2v-1.7c0-0.1,0-0.2,0.1-0.2c0.1,0,0.2,0,0.2,0l1.4,0.8
			c0.1,0,0.1,0.1,0.1,0.2c0,0.1,0,0.2-0.1,0.2l-1.4,0.8C132,33.2,132,33.2,131.9,33.2z"/>
		<path class="st7" d="M129.1,26.3c-0.1,0-0.2-0.1-0.2-0.1c-0.1-0.1-0.2-0.3-0.1-0.5l0.8-3.1c0-0.2,0.2-0.3,0.3-0.3
			c0.2,0,0.3,0,0.5,0.1l2.3,2.2c0.1,0.1,0.2,0.3,0.1,0.5c0,0.2-0.2,0.3-0.3,0.3l-3.1,0.9C129.2,26.3,129.1,26.3,129.1,26.3z"/>
		<path class="st8" d="M131.7,19.7C131.7,19.7,131.7,19.7,131.7,19.7C131.7,19.7,131.7,19.7,131.7,19.7l-0.2,0.2v-0.4
			c0.1-0.1,0.1-0.1,0.2-0.1c0.1,0,0.2,0.1,0.2,0.1l0.6,1.5c0,0.1,0,0.2,0,0.2c-0.1,0.1-0.1,0.1-0.2,0.1l-0.8-0.1v-0.2l0.8,0.1
			c0,0,0,0,0,0c0,0,0,0,0,0L131.7,19.7C131.7,19.7,131.7,19.7,131.7,19.7L131.7,19.7z M131.5,19.9v-0.4c0,0,0,0,0,0l-1,1.3
			c-0.1,0.1-0.1,0.2,0,0.2c0,0,0,0.1,0.1,0.1c0,0,0.1,0,0.1,0l0.9,0.1v-0.2l-0.8-0.1c0,0,0,0,0,0c0,0,0,0,0,0L131.5,19.9L131.5,19.9
			z"/>
		<path class="st9" d="M135,25.2l0.8,0c0,0,0,0,0,0c0,0,0,0,0,0l-0.8-1.3v-0.2c0.1,0,0.1,0,0.2,0.1l0.8,1.3c0,0.1,0,0.2,0,0.2
			c0,0.1-0.1,0.1-0.2,0.1l-0.8,0V25.2L135,25.2z M135,23.9C135,23.9,135,23.9,135,23.9L135,23.9l0-0.2c0,0,0,0,0,0
			c-0.1,0-0.2,0-0.2,0.1l-0.8,1.3c0,0.1,0,0.2,0,0.2c0,0,0,0.1,0.1,0.1c0,0,0.1,0,0.1,0l0.8,0v-0.2l-0.8,0c0,0,0,0,0,0c0,0,0,0,0,0
			L135,23.9C135,23.9,135,23.9,135,23.9C135,23.9,135,23.9,135,23.9L135,23.9z"/>
		<path class="st10" d="M131.1,28.3l0.5-0.3c0,0,0,0,0,0c0,0,0,0,0,0l-0.5-0.3v-0.2l0.6,0.3c0.1,0,0.1,0.1,0.1,0.1
			c0,0.1,0,0.1-0.1,0.1l-0.6,0.3V28.3L131.1,28.3z M130.6,27.5C130.6,27.5,130.6,27.5,130.6,27.5l0.5,0.3v-0.2l-0.4-0.2
			c-0.1,0-0.1,0-0.2,0c-0.1,0-0.1,0.1-0.1,0.1v1.1c0,0.1,0,0.1,0.1,0.1c0,0,0.1,0,0.1,0s0.1,0,0.1,0l0.4-0.2v-0.2l-0.5,0.3
			c0,0,0,0,0,0c0,0,0,0,0,0L130.6,27.5C130.6,27.5,130.6,27.5,130.6,27.5C130.6,27.5,130.6,27.5,130.6,27.5L130.6,27.5z"/>
		<path class="st11" d="M136.1,16.4C136.1,16.4,136.1,16.4,136.1,16.4C136,16.4,136,16.4,136.1,16.4l-0.1,0.1L136.1,16.4
			c-0.1-0.1,0-0.1,0-0.1c0,0,0.1,0,0.1,0.1l0.3,0.8c0,0,0,0.1,0,0.1c0,0-0.1,0.1-0.1,0l-0.4,0v-0.1l0.4,0.1c0,0,0,0,0,0c0,0,0,0,0,0
			L136.1,16.4C136.1,16.4,136.1,16.4,136.1,16.4L136.1,16.4z M136,16.5v-0.2c0,0,0,0,0,0l-0.5,0.7c0,0,0,0.1,0,0.1c0,0,0,0,0,0.1
			c0,0,0,0,0.1,0l0.4,0.1v-0.1l-0.4-0.1c0,0,0,0,0,0c0,0,0,0,0,0L136,16.5L136,16.5z"/>
		<path class="st12" d="M127.2,21.9c-0.2,0-0.3,0-0.5,0l2.5-9l4.4,1.7c0.4,0.2,0.7,0.5,0.7,0.9c0.1,0.4-0.1,0.8-0.4,1.1l-6.2,5
			C127.6,21.7,127.4,21.8,127.2,21.9z"/>
		<path class="st13" d="M127.2,21.9c-0.2,0-0.3,0-0.5,0L132,14l1.6,0.6c0.4,0.2,0.7,0.5,0.7,0.9c0.1,0.4-0.1,0.8-0.4,1.1l-6.2,5
			C127.6,21.7,127.4,21.8,127.2,21.9z"/>
		<g>
			<path class="st14" d="M137.1,22.9c0.1,0,0.2-0.1,0.2-0.1c0.1-0.1,0.2-0.3,0.2-0.5l-0.9-3.6c0-0.2-0.2-0.3-0.4-0.4
				c-0.2-0.1-0.4,0-0.5,0.1l-2.7,2.6c-0.1,0.1-0.2,0.3-0.2,0.5c0,0.2,0.2,0.3,0.4,0.4l3.6,1C137,23,137,23,137.1,22.9z"/>
			<g>
				<path class="st15" d="M137.1,22.9c0.1,0,0.1,0,0.2-0.1l-2.7-3.4l-1.6,1.5c-0.1,0.1-0.2,0.3-0.2,0.5c0,0.2,0.2,0.3,0.4,0.4l3.6,1
					C136.9,22.9,137,22.9,137.1,22.9z"/>
				<path class="st16" d="M137.1,22.9c0.1,0,0.1,0,0.2-0.1l-3.7-2.4l-0.6,0.6c-0.1,0.1-0.2,0.3-0.2,0.5c0,0.2,0.2,0.3,0.4,0.4l3.6,1
					C136.9,22.9,137,22.9,137.1,22.9z"/>
			</g>
		</g>
		<path class="st17" d="M129.1,26.3c-0.1,0-0.1,0-0.2-0.1l2.3-2.9l1.4,1.3c0.1,0.1,0.2,0.3,0.1,0.5c0,0.2-0.2,0.3-0.3,0.3l-3.1,0.9
			C129.3,26.3,129.2,26.3,129.1,26.3z"/>
		<path class="st18" d="M129.1,26.3c-0.1,0-0.1,0-0.2-0.1l3.2-2.1l0.5,0.5c0.1,0.1,0.2,0.3,0.1,0.5c0,0.2-0.2,0.3-0.3,0.3l-3.1,0.9
			C129.3,26.3,129.2,26.3,129.1,26.3z"/>
		<path class="st19" d="M135.2,29.6c0.1,0,0.1,0,0.2-0.1c0.1-0.1,0.2-0.2,0.2-0.3v-2.6c0-0.1-0.1-0.3-0.2-0.3
			c-0.1-0.1-0.3-0.1-0.4,0l-2.2,1.3c-0.1,0.1-0.2,0.2-0.2,0.3c0,0.1,0.1,0.3,0.2,0.3l2.2,1.3C135.1,29.6,135.1,29.6,135.2,29.6z"/>
		<path class="st20" d="M135.2,29.6c0,0,0.1,0,0.1,0l-1.2-2.7l-1.3,0.8c-0.1,0.1-0.2,0.2-0.2,0.3c0,0.1,0.1,0.3,0.2,0.3l2.2,1.3
			C135.1,29.6,135.1,29.6,135.2,29.6z"/>
		<path class="st21" d="M135.2,29.6c0,0,0.1,0,0.1,0l-2.1-2.2l-0.5,0.3c-0.1,0.1-0.2,0.2-0.2,0.3c0,0.1,0.1,0.3,0.2,0.3l2.2,1.3
			C135.1,29.6,135.1,29.6,135.2,29.6z"/>
		<g>
			<path class="st12" d="M131.7,31.2C131.7,31.2,131.8,31.1,131.7,31.2l1.2,1.5l-0.8,0.5c-0.1,0-0.2,0-0.2,0c-0.1,0-0.1-0.1-0.1-0.2
				l0-1.7C131.7,31.3,131.7,31.2,131.7,31.2z"/>
			<path class="st13" d="M131.7,31.2C131.7,31.2,131.8,31.1,131.7,31.2l0.6,1.8l-0.3,0.2c-0.1,0-0.2,0-0.2,0c-0.1,0-0.1-0.1-0.1-0.2
				l0-1.7C131.7,31.3,131.7,31.2,131.7,31.2z"/>
		</g>
	</g>
</g>
</svg>
